<?xml version="1.0" encoding="utf-8"?>
<!-- Generator: Adobe Illustrator 26.2.1, SVG Export Plug-In . SVG Version: 6.00 Build 0)  -->
<svg version="1.1" id="Layer_1" xmlns="http://www.w3.org/2000/svg" xmlns:xlink="http://www.w3.org/1999/xlink" x="0px" y="0px"
	 viewBox="0 0 150 150" style="enable-background:new 0 0 150 150;" xml:space="preserve">
<style type="text/css">
	.st0{fill:#00D7FF;}
</style>
<g>
	<g>
		<g>
			<g>
				<g>
					<path class="st0" d="M-1.28-1572.78c-2.07,0-3.74-1.68-3.74-3.74v-69.71c0-19.97,14.38-36.22,32.06-36.22h13.74
						c2.07,0,3.74,1.68,3.74,3.74s-1.68,3.74-3.74,3.74H27.03c-13.55,0-24.57,12.89-24.57,28.73v69.71
						C2.46-1574.46,0.78-1572.78-1.28-1572.78z"/>
				</g>
			</g>
			<path class="st0" d="M47.51-1540.71c-0.93,0-1.86-0.35-2.57-1.01l-16.82-15.58h-13.8c-2.09,0-3.78-1.69-3.78-3.78
				c0-2.09,1.69-3.78,3.78-3.78H29.6c0.95,0,1.87,0.36,2.57,1.01l11.56,10.71v-7.28c0-2.09,1.69-3.78,3.78-3.78h38.11
				c2.09,0,3.78,1.69,3.78,3.78c0,2.09-1.69,3.78-3.78,3.78H51.28v12.16c0,1.5-0.89,2.86-2.27,3.46
				C48.53-1540.82,48.02-1540.71,47.51-1540.71z"/>
			<path class="st0" d="M117.14-1646.34c-0.01,0-0.02,0-0.02,0c-2.09-0.01-3.77-1.71-3.75-3.8l0.15-24.78h-72.5
				c-2.09,0-3.78-1.69-3.78-3.78c0-2.09,1.69-3.78,3.78-3.78h76.31c1.01,0,1.97,0.4,2.68,1.11c0.71,0.71,1.1,1.68,1.1,2.69
				l-0.18,28.59C120.91-1648.02,119.22-1646.34,117.14-1646.34z"/>
		</g>
	</g>
	<g>
		<g>
			<path class="st0" d="M133.38-1600.21c-1.08,0-2.15-0.46-2.89-1.35l-48.78-57.98c-1.34-1.6-1.14-3.98,0.46-5.32
				c1.6-1.34,3.98-1.14,5.32,0.46l48.78,57.98c1.34,1.6,1.14,3.98-0.46,5.32C135.1-1600.5,134.23-1600.21,133.38-1600.21z"/>
			<path class="st0" d="M87.65-1589.11c-1.08,0-2.16-0.46-2.9-1.35l-20.9-25.02c-0.67-0.8-0.97-1.83-0.85-2.87
				c0.12-1.03,0.66-1.97,1.5-2.59c12.86-9.56,12.28-20.82,12.25-21.3c-0.17-2.08,1.38-3.89,3.46-4.06c2.08-0.17,3.9,1.39,4.07,3.47
				c0.05,0.6,0.95,13.79-12.18,25.43l16.2,19.4c6.52-4.36,22.82-13.72,41.39-12.73c2.08,0.11,3.68,1.89,3.57,3.97
				c-0.11,2.08-1.89,3.69-3.97,3.57c-20.71-1.1-39.13,13.12-39.31,13.26C89.29-1589.37,88.47-1589.11,87.65-1589.11z"/>
			<path class="st0" d="M63.96-1571.98c-3.03,0-6.1-1.2-8.43-3.55l-10.17-10.27c-2.32-2.35-3.64-5.57-3.61-8.84
				c0.03-3.14,1.25-6.03,3.44-8.15c0.01-0.01,0.02-0.02,0.02-0.02l6.23-5.93c1.51-1.44,3.9-1.38,5.34,0.13
				c1.44,1.51,1.38,3.9-0.13,5.34l-6.21,5.91c-0.72,0.7-1.12,1.69-1.13,2.79c-0.01,1.27,0.5,2.52,1.42,3.45l10.17,10.27
				c1.57,1.58,3.88,1.79,5.37,0.47l15.83-13.94c1.57-1.38,3.95-1.23,5.33,0.34c1.38,1.57,1.23,3.95-0.34,5.33l-15.82,13.94
				C69.19-1572.88,66.59-1571.98,63.96-1571.98z"/>
			<path class="st0" d="M122.8-1619.06c-1.3,0-2.56-0.67-3.26-1.87c-1.06-1.8-0.45-4.11,1.35-5.17c5.28-3.1,7.32-9.48,4.54-14.22
				c-2.78-4.74-9.34-6.07-14.63-2.97c-1.33,0.78-2.47,1.77-3.4,2.95c-1.29,1.64-3.67,1.92-5.31,0.63c-1.64-1.29-1.92-3.67-0.63-5.31
				c1.51-1.92,3.37-3.53,5.51-4.78c8.88-5.21,20.08-2.67,24.97,5.66c4.89,8.33,1.64,19.35-7.24,24.56
				C124.11-1619.22,123.45-1619.06,122.8-1619.06z"/>
		</g>
		<path class="st0" d="M88.77-1556.32c-0.88,0-1.77-0.31-2.48-0.93l-20-17.44c-1.57-1.37-1.74-3.76-0.36-5.33
			c1.37-1.57,3.76-1.74,5.33-0.36l17.35,15.13l2.95-2.94l-14.98-13.92c-1.53-1.42-1.62-3.81-0.19-5.34
			c1.42-1.53,3.81-1.62,5.34-0.19l17.85,16.6c0.75,0.7,1.19,1.68,1.21,2.7c0.02,1.03-0.38,2.02-1.11,2.74l-8.24,8.19
			C90.7-1556.69,89.74-1556.32,88.77-1556.32z"/>
	</g>
	<path class="st0" d="M139.5-1642.07c-1.02,0-2.03-0.41-2.77-1.21c-1.42-1.53-1.33-3.92,0.21-5.34l8.87-8.21
		c1.53-1.42,3.92-1.33,5.34,0.21c1.42,1.53,1.33,3.92-0.21,5.34l-8.87,8.21C141.34-1642.4,140.42-1642.07,139.5-1642.07z"/>
	<path class="st0" d="M151.25-1617.24c-0.3,0-0.61-0.04-0.92-0.11l-13.14-3.29c-2.02-0.51-3.26-2.56-2.75-4.58
		c0.51-2.02,2.56-3.26,4.58-2.75l13.14,3.29c2.02,0.51,3.26,2.56,2.75,4.58C154.48-1618.38,152.94-1617.24,151.25-1617.24z"/>
</g>
<g>
	<g id="mfExAV_00000104687366627702399030000011222532128092911794_">
		<g>
			<g>
				<path class="st0" d="M143.16,18.77C143.16,18.77,143.16,18.77,143.16,18.77c-0.92-2-2-3.91-3.42-5.57
					c-6.75-7.85-17.41-10.1-26.54-5.48c-4.7,2.38-8.38,5.92-10.41,11.04c0,0,0,0,0,0c-0.22,0.47-0.48,0.92-0.67,1.4
					c-1.84,4.89-1.84,9.88-0.79,14.93c0,0,0,0,0,0c1.28,6.78,4.15,12.8,8.22,18.24c0,0,0,0,0,0c3.36,5.02,7.48,9.3,12.16,13.01
					c0.92,0.73,1.98,0.5,2.87-0.23c4.49-3.71,8.52-7.87,11.8-12.77c4.07-5.45,6.94-11.47,8.22-18.25c0.19-1.25,0.45-2.49,0.56-3.74
					C145.57,26.98,145.19,22.74,143.16,18.77z M138.96,36c-1.43,5.52-4.13,10.36-7.41,14.91c-0.33,0.46-1.58,2.11-1.9,2.49
					c-1.66,1.96-3.37,3.87-5.18,5.68c-0.94,0.94-1.77,1.11-2.77,0.11c-1.41-1.4-2.85-2.76-4.1-4.32c-0.61-0.77-2.44-2.96-2.72-3.33
					c-3.49-4.73-6.4-9.76-7.87-15.56c-0.13-0.5-0.53-2.87-0.66-3.62c-0.67-3.94-0.23-7.71,1.33-11.37c0.18-0.42,0.96-1.98,1.25-2.38
					c0.98-1.37,2.09-2.61,3.36-3.73c6.8-5.96,17.68-5.01,23.44,2.03c0.75,0.91,2.3,3.45,2.46,3.8c1.79,3.99,2.13,8.15,1.33,12.44
					C139.41,33.65,139.09,35.49,138.96,36z"/>
				<path class="st0" d="M122.94,67.75c-0.64,0-1.27-0.21-1.82-0.65c-5.03-3.99-9.07-8.31-12.35-13.21
					c-4.38-5.86-7.13-11.95-8.38-18.62c-1.19-5.74-0.92-10.8,0.83-15.45c0.14-0.38,0.32-0.72,0.49-1.06
					c0.07-0.13,0.13-0.26,0.2-0.39c1.99-5,5.64-8.87,10.86-11.51c9.5-4.81,20.63-2.52,27.7,5.71c1.32,1.53,2.45,3.37,3.56,5.77
					c1.91,3.73,2.58,7.89,2.11,13.09c-0.08,0.9-0.23,1.79-0.38,2.64c-0.07,0.39-0.13,0.77-0.19,1.16l-0.01,0.03
					c-1.26,6.65-4,12.75-8.38,18.63c-3.11,4.64-7.03,8.88-11.97,12.95C124.49,67.45,123.71,67.75,122.94,67.75z M123.04,6.31
					c-3.17,0-6.38,0.74-9.4,2.28c-4.8,2.43-8.14,5.97-9.95,10.53l-0.03,0.06c-0.07,0.15-0.15,0.31-0.23,0.46
					c-0.15,0.3-0.3,0.58-0.4,0.86c-1.62,4.3-1.86,9.01-0.74,14.39c1.21,6.4,3.84,12.23,8.05,17.86l0.03,0.04
					c3.17,4.74,7.08,8.92,11.96,12.79c0.47,0.37,1.03,0.3,1.66-0.22c4.8-3.96,8.6-8.07,11.61-12.56l0.03-0.04
					c4.21-5.64,6.84-11.47,8.04-17.83c0.06-0.39,0.13-0.78,0.19-1.18c0.15-0.86,0.29-1.67,0.36-2.49c0.43-4.82-0.18-8.65-1.92-12.05
					l-0.02-0.04c-1.04-2.25-2.08-3.94-3.28-5.34C134.78,8.92,128.98,6.31,123.04,6.31z M123,60.83c-0.8,0-1.48-0.45-1.99-0.96
					c-0.21-0.21-0.43-0.43-0.65-0.64c-1.2-1.18-2.43-2.4-3.53-3.77c-0.25-0.32-0.72-0.88-1.19-1.46c-0.83-1.01-1.38-1.68-1.54-1.9
					c-4.15-5.63-6.71-10.68-8.03-15.9c-0.09-0.37-0.31-1.58-0.67-3.7c-0.69-4.1-0.23-8.11,1.39-11.91c0.17-0.39,0.98-2.05,1.35-2.57
					c1.06-1.47,2.2-2.74,3.51-3.89c3.42-3,8.07-4.49,12.76-4.1c4.74,0.39,9.14,2.67,12.06,6.25c0.78,0.95,2.4,3.58,2.59,4.01
					c1.79,3.99,2.26,8.37,1.4,13.01l-0.09,0.47c-0.19,1.03-0.38,2.06-0.48,2.46c-1.31,5.05-3.71,9.89-7.56,15.23
					c-0.34,0.47-1.6,2.14-1.95,2.55c-1.81,2.15-3.52,4.03-5.24,5.74C124.37,60.54,123.64,60.83,123,60.83z M122.94,11.91
					c-3.72,0-7.31,1.31-10.02,3.69c-1.2,1.05-2.25,2.21-3.22,3.56c-0.22,0.3-0.95,1.74-1.14,2.2c-1.49,3.5-1.9,7.04-1.26,10.83
					c0.45,2.67,0.59,3.37,0.64,3.54c1.26,4.97,3.71,9.81,7.71,15.23c0.15,0.2,0.89,1.1,1.48,1.82c0.48,0.59,0.95,1.16,1.21,1.48
					c1.02,1.28,2.17,2.4,3.38,3.6c0.22,0.21,0.43,0.43,0.65,0.64c0.52,0.52,0.73,0.58,1.41-0.11c1.68-1.68,3.35-3.51,5.13-5.62
					c0.29-0.34,1.52-1.96,1.86-2.43c3.71-5.14,6.02-9.78,7.26-14.59l0,0c0.09-0.36,0.32-1.64,0.45-2.32l0.09-0.48
					c0.8-4.3,0.39-8.19-1.26-11.87c-0.14-0.29-1.62-2.73-2.32-3.58c-2.6-3.17-6.51-5.19-10.73-5.54
					C123.81,11.93,123.38,11.91,122.94,11.91z"/>
			</g>
			<g>
				<g>
					<path class="st0" d="M132.9,28.06c-0.14-5.37-4.41-9.76-9.62-9.9c-5.61-0.15-10.21,4.45-10.22,10.17
						c-0.02,5.65,4.45,10.28,9.92,10.27C128.55,38.6,133.05,33.85,132.9,28.06z M123.09,33.5c-2.68,0.06-5-2.21-5.06-4.96
						c-0.06-2.91,2.23-5.31,5.05-5.25c2.52,0.05,4.65,2.12,4.85,4.71C128.15,30.92,125.9,33.43,123.09,33.5z"/>
					<path class="st0" d="M122.96,39.57c-2.84,0-5.52-1.13-7.56-3.17c-2.14-2.14-3.31-5.01-3.3-8.06c0.01-3.08,1.22-5.95,3.4-8.07
						c2.12-2.05,4.89-3.15,7.81-3.06c5.77,0.15,10.41,4.92,10.56,10.84l0,0c0.08,3.12-1.05,6.05-3.2,8.25
						c-2.06,2.11-4.79,3.28-7.69,3.28C122.97,39.57,122.97,39.57,122.96,39.57z M123.02,19.13c-2.31,0-4.49,0.89-6.17,2.52
						c-1.81,1.76-2.81,4.13-2.82,6.69c-0.01,2.54,0.96,4.92,2.74,6.69c1.68,1.68,3.88,2.61,6.2,2.61c0,0,0.01,0,0.01,0
						c2.38,0,4.62-0.96,6.31-2.7c1.78-1.83,2.72-4.26,2.65-6.85l0,0c-0.12-4.82-4.02-8.83-8.68-8.96
						C123.18,19.13,123.1,19.13,123.02,19.13z M122.97,34.47c-1.48,0-2.9-0.58-4.02-1.65c-1.17-1.12-1.86-2.67-1.9-4.26
						c-0.04-1.69,0.62-3.33,1.79-4.51c1.14-1.15,2.65-1.76,4.24-1.73c3.01,0.06,5.56,2.52,5.8,5.6c0.13,1.68-0.44,3.35-1.56,4.59
						c-1.11,1.22-2.6,1.92-4.22,1.96h0C123.06,34.47,123.02,34.47,122.97,34.47z M122.98,24.25c-1.03,0-2.01,0.41-2.76,1.16
						c-0.81,0.81-1.26,1.94-1.23,3.1c0.02,1.08,0.5,2.14,1.3,2.91c0.78,0.74,1.76,1.14,2.77,1.11c1.08-0.03,2.08-0.5,2.83-1.32
						c0.78-0.86,1.16-1.98,1.07-3.15c-0.16-2.1-1.88-3.77-3.91-3.81C123.03,24.25,123.01,24.25,122.98,24.25z"/>
				</g>
			</g>
		</g>
	</g>
	<path class="st0" d="M74.68,145.97c-10.59,0-20.77-2.28-30.28-6.76c-1.89-0.89-2.69-3.14-1.8-5.03c0.89-1.89,3.14-2.69,5.03-1.8
		c8.49,4.01,17.59,6.04,27.05,6.04c34.96,0,63.41-28.45,63.41-63.41c0-8.6-1.69-16.95-5.03-24.79c-0.82-1.92,0.08-4.14,2-4.96
		c1.92-0.82,4.14,0.08,4.96,2c3.74,8.79,5.63,18.12,5.63,27.75c0,18.96-7.38,36.78-20.79,50.18
		C111.46,138.59,93.64,145.97,74.68,145.97z"/>
	<path class="st0" d="M21.48,119.82c-1.13,0-2.25-0.51-2.99-1.47C8.82,105.84,3.71,90.85,3.71,75c0-18.96,7.38-36.78,20.79-50.18
		S55.72,4.03,74.68,4.03c11.97,0,23.8,3.04,34.22,8.78c1.83,1.01,2.49,3.31,1.48,5.13c-1.01,1.83-3.31,2.49-5.13,1.48
		c-9.3-5.13-19.87-7.84-30.57-7.84c-34.96,0-63.41,28.45-63.41,63.41c0,14.16,4.56,27.55,13.2,38.73c1.28,1.65,0.97,4.02-0.68,5.3
		C23.1,119.56,22.29,119.82,21.48,119.82z"/>
	<path class="st0" d="M74.68,145.15c-7.28,0-13.44-7.69-17.82-22.22c-3.9-12.94-6.04-30.08-6.04-48.25
		c0-35.02,8.2-70.47,23.86-70.47c7.28,0,13.44,7.68,17.82,22.22c3.9,12.94,6.04,30.08,6.04,48.25
		C98.54,109.69,90.35,145.15,74.68,145.15z M74.68,11.75c-1.38,0-3.06,1.3-4.74,3.65c-2.12,2.98-4.14,7.54-5.84,13.19
		c-3.69,12.25-5.72,28.62-5.72,46.07s2.03,33.82,5.72,46.07c1.7,5.65,3.72,10.21,5.84,13.19c1.68,2.36,3.36,3.65,4.74,3.65
		s3.06-1.3,4.74-3.65c2.12-2.98,4.14-7.54,5.84-13.19c3.69-12.25,5.72-28.62,5.72-46.07s-2.03-33.82-5.72-46.07
		c-1.7-5.65-3.72-10.21-5.84-13.19C77.74,13.05,76.06,11.75,74.68,11.75z"/>
	<path class="st0" d="M110.99,59.23H10.85c-2.09,0-3.78-1.69-3.78-3.78c0-2.09,1.69-3.78,3.78-3.78h100.14
		c2.09,0,3.78,1.69,3.78,3.78C114.76,57.54,113.07,59.23,110.99,59.23z"/>
	<path class="st0" d="M138.86,98.27H10.85c-2.09,0-3.78-1.69-3.78-3.78s1.69-3.78,3.78-3.78h128.01c2.09,0,3.78,1.69,3.78,3.78
		S140.94,98.27,138.86,98.27z"/>
</g>
</svg>
