<?xml version="1.0" encoding="utf-8"?>
<!-- Generator: Adobe Illustrator 26.2.1, SVG Export Plug-In . SVG Version: 6.00 Build 0)  -->
<svg version="1.1" id="Layer_1" xmlns="http://www.w3.org/2000/svg" xmlns:xlink="http://www.w3.org/1999/xlink" x="0px" y="0px"
	 viewBox="0 0 162.55 161.42" style="enable-background:new 0 0 162.55 161.42;" xml:space="preserve">
<style type="text/css">
	.st0{fill:#00D7FF;}
	.st1{fill:#001E6B;}
</style>
<g>
	<g>
		<g>
			<g>
				<g>
					<path class="st0" d="M4.99-1567.07c-2.07,0-3.74-1.68-3.74-3.74v-69.71c0-19.97,14.38-36.22,32.06-36.22h13.74
						c2.07,0,3.74,1.68,3.74,3.74s-1.68,3.74-3.74,3.74H33.3c-13.55,0-24.57,12.89-24.57,28.73v69.71
						C8.73-1568.75,7.06-1567.07,4.99-1567.07z"/>
				</g>
			</g>
			<path class="st0" d="M53.78-1535c-0.93,0-1.86-0.35-2.57-1.01l-16.82-15.58H20.6c-2.09,0-3.78-1.69-3.78-3.78
				c0-2.09,1.69-3.78,3.78-3.78h15.28c0.95,0,1.87,0.36,2.57,1.01L50-1547.43v-7.28c0-2.09,1.69-3.78,3.78-3.78h38.11
				c2.09,0,3.78,1.69,3.78,3.78c0,2.09-1.69,3.78-3.78,3.78H57.56v12.16c0,1.5-0.89,2.86-2.27,3.46
				C54.81-1535.11,54.29-1535,53.78-1535z"/>
			<path class="st0" d="M123.42-1640.63c-0.01,0-0.02,0-0.02,0c-2.09-0.01-3.77-1.71-3.75-3.8l0.15-24.78h-72.5
				c-2.09,0-3.78-1.69-3.78-3.78s1.69-3.78,3.78-3.78h76.31c1.01,0,1.97,0.4,2.68,1.11c0.71,0.71,1.1,1.68,1.1,2.69l-0.18,28.59
				C127.18-1642.31,125.5-1640.63,123.42-1640.63z"/>
		</g>
	</g>
	<g>
		<g>
			<path class="st0" d="M139.65-1594.5c-1.08,0-2.15-0.46-2.89-1.35l-48.78-57.98c-1.34-1.6-1.14-3.98,0.46-5.32
				c1.6-1.34,3.98-1.14,5.32,0.46l48.78,57.98c1.34,1.6,1.14,3.98-0.46,5.32C141.37-1594.79,140.51-1594.5,139.65-1594.5z"/>
			<path class="st0" d="M93.93-1583.4c-1.08,0-2.16-0.46-2.9-1.35l-20.9-25.02c-0.67-0.8-0.97-1.83-0.85-2.87
				c0.12-1.03,0.66-1.97,1.5-2.59c12.86-9.56,12.28-20.82,12.25-21.3c-0.17-2.08,1.38-3.89,3.46-4.06c2.08-0.17,3.9,1.39,4.07,3.47
				c0.05,0.6,0.95,13.79-12.18,25.43l16.2,19.4c6.52-4.36,22.82-13.72,41.39-12.73c2.08,0.11,3.68,1.89,3.57,3.97
				c-0.11,2.08-1.89,3.69-3.97,3.57c-20.71-1.1-39.13,13.12-39.31,13.26C95.57-1583.66,94.75-1583.4,93.93-1583.4z"/>
			<path class="st0" d="M70.24-1566.27c-3.03,0-6.1-1.2-8.43-3.55l-10.17-10.27c-2.32-2.35-3.64-5.57-3.61-8.84
				c0.03-3.14,1.25-6.03,3.44-8.15c0.01-0.01,0.02-0.02,0.02-0.02l6.23-5.93c1.51-1.44,3.9-1.38,5.34,0.13
				c1.44,1.51,1.38,3.9-0.13,5.34l-6.21,5.91c-0.72,0.7-1.12,1.69-1.13,2.79c-0.01,1.27,0.5,2.52,1.42,3.45l10.17,10.27
				c1.57,1.58,3.88,1.79,5.37,0.47l15.83-13.94c1.57-1.38,3.95-1.23,5.33,0.34c1.38,1.57,1.23,3.95-0.34,5.33l-15.82,13.94
				C75.47-1567.17,72.86-1566.27,70.24-1566.27z"/>
			<path class="st0" d="M129.07-1613.34c-1.3,0-2.56-0.67-3.26-1.87c-1.06-1.8-0.45-4.11,1.35-5.17c5.28-3.1,7.32-9.48,4.54-14.22
				c-2.78-4.74-9.34-6.07-14.63-2.97c-1.33,0.78-2.47,1.77-3.4,2.95c-1.29,1.64-3.67,1.92-5.31,0.63c-1.64-1.29-1.92-3.67-0.63-5.31
				c1.51-1.92,3.37-3.53,5.51-4.78c8.88-5.21,20.08-2.67,24.97,5.66c4.89,8.33,1.64,19.35-7.24,24.56
				C130.38-1613.51,129.72-1613.34,129.07-1613.34z"/>
		</g>
		<path class="st0" d="M95.04-1550.61c-0.88,0-1.77-0.31-2.48-0.93l-20-17.44c-1.57-1.37-1.74-3.76-0.36-5.33
			c1.37-1.57,3.76-1.74,5.33-0.36l17.35,15.13l2.95-2.94l-14.98-13.92c-1.53-1.42-1.62-3.81-0.19-5.34
			c1.42-1.53,3.81-1.62,5.34-0.19l17.85,16.6c0.75,0.7,1.19,1.68,1.21,2.7c0.02,1.03-0.38,2.02-1.11,2.74l-8.24,8.19
			C96.98-1550.98,96.01-1550.61,95.04-1550.61z"/>
	</g>
	<path class="st0" d="M145.78-1636.36c-1.02,0-2.03-0.41-2.77-1.21c-1.42-1.53-1.33-3.92,0.21-5.34l8.87-8.21
		c1.53-1.42,3.92-1.33,5.34,0.21c1.42,1.53,1.33,3.92-0.21,5.34l-8.87,8.21C147.62-1636.69,146.69-1636.36,145.78-1636.36z"/>
	<path class="st0" d="M157.53-1611.53c-0.3,0-0.61-0.04-0.92-0.11l-13.14-3.29c-2.02-0.51-3.26-2.56-2.75-4.58
		c0.51-2.02,2.56-3.26,4.58-2.75l13.14,3.29c2.02,0.51,3.26,2.56,2.75,4.58C160.76-1612.67,159.22-1611.53,157.53-1611.53z"/>
</g>
<g>
	<g>
		<path class="st1" d="M57.59,157.54c-0.39,0-0.78-0.06-1.17-0.17c-2.16-0.65-3.38-2.92-2.73-5.08c2.71-9.04,1.56-21.76,1.49-22.51
			c-1.22-9.91-6.8-17.6-12.7-25.75c-4.74-6.54-9.64-13.29-12.23-21.38c-2.98-9.29-2.41-18.96,1.73-29.58
			c3.54-9.06,8.96-16.38,16.11-21.76c6.55-4.93,14.38-7.99,22.64-8.84c17.65-1.84,34.64,6.22,44.32,21.02
			c1.23,1.88,0.7,4.41-1.18,5.64c-1.88,1.23-4.41,0.71-5.64-1.18c-8-12.23-22.05-18.89-36.66-17.37
			c-14.61,1.52-26.27,10.8-31.99,25.46c-7.64,19.56,0.3,30.52,9.5,43.21c6.26,8.64,12.73,17.57,14.2,29.59
			c0,0.03,0.01,0.05,0.01,0.08c0.06,0.6,1.47,14.87-1.79,25.72C60.96,156.4,59.34,157.54,57.59,157.54z"/>
		<path class="st1" d="M107.31,156.69c-2.07,0-3.84-1.56-4.05-3.67c-0.72-7.2,1.34-21.36,14.28-23.46c2.47-0.4,4.8-0.63,6.85-0.84
			c3.83-0.38,7.14-0.71,8.93-1.92c0.67-0.45,2.44-1.64,2.72-7.85l0.68-14.96c0.07-1.57,1.04-2.96,2.5-3.57l6.06-2.54l-10.85-16.93
			c-0.41-0.35-0.77-0.76-1.07-1.24c-1.33-2.09-1.4-5.03-0.23-9.25c1.01-3.63,1.9-9.27,0.43-15.57c-2.01-8.58-7.83-15.87-17.32-21.67
			c-1.92-1.17-2.53-3.68-1.35-5.6c1.17-1.92,3.68-2.53,5.6-1.35c11.42,6.98,18.49,15.98,21.01,26.77
			c1.86,7.98,0.75,15.07-0.51,19.61c-0.37,1.35-0.49,2.2-0.52,2.68c0.13,0.15,0.25,0.31,0.36,0.48l13.94,21.75
			c0.65,1.01,0.82,2.26,0.46,3.41c-0.36,1.15-1.21,2.08-2.32,2.55l-8.16,3.42l-0.56,12.38c-0.71,15.69-10,16.61-18.99,17.51
			c-2.03,0.2-4.13,0.41-6.36,0.77c-4.62,0.75-6.1,4.41-6.81,7.09c-1,3.76-0.66,7.49-0.66,7.52c0.21,2.24-1.43,4.23-3.66,4.45
			C107.58,156.68,107.45,156.69,107.31,156.69z M140.47,75.85L140.47,75.85L140.47,75.85z M138.08,73.99
			C138.08,73.99,138.08,73.99,138.08,73.99C138.08,73.99,138.08,73.99,138.08,73.99z"/>
		<path class="st1" d="M83.74,100.27c-14.33,0-27.19-9.31-32.76-23.71c-0.81-2.1,0.23-4.46,2.33-5.27c2.1-0.81,4.46,0.23,5.27,2.33
			c4.34,11.24,14.21,18.5,25.15,18.5c15.1,0,27.38-13.74,27.38-30.62c0-4.3-0.78-8.46-2.32-12.36c-0.83-2.09,0.2-4.46,2.29-5.29
			c2.09-0.83,4.46,0.2,5.29,2.29c1.92,4.86,2.9,10.03,2.9,15.36C119.27,82.88,103.33,100.27,83.74,100.27z"/>
		<path class="st1" d="M112.53,51.55c-1.57,0-3.07-0.91-3.74-2.45c-0.11-0.24-0.27-0.54-0.44-0.86c-0.12-0.21-0.23-0.43-0.34-0.65
			c-1.03-2-0.25-4.46,1.75-5.49c2-1.03,4.46-0.25,5.49,1.75c0.09,0.17,0.18,0.33,0.27,0.5c0.24,0.44,0.51,0.93,0.75,1.5
			c0.9,2.06-0.04,4.47-2.11,5.37C113.63,51.44,113.08,51.55,112.53,51.55z"/>
		<path class="st1" d="M56.13,82.12c-1.43,0-2.81-0.75-3.56-2.09c-2.16-3.87-3.31-8.31-3.31-12.85c0-13.71,10.33-24.86,23.02-24.86
			c3.15,0,6.21,0.68,9.09,2.01c2.04,0.95,2.93,3.37,1.98,5.41c-0.95,2.04-3.37,2.93-5.41,1.98c-1.79-0.83-3.7-1.25-5.66-1.25
			c-8.2,0-14.87,7.49-14.87,16.7c0,3.15,0.78,6.22,2.27,8.87c1.1,1.96,0.4,4.45-1.57,5.55C57.49,81.95,56.8,82.12,56.13,82.12z"/>
		<path class="st1" d="M82.47,64.3c-1.07,0-2.14-0.42-2.94-1.25c-1.56-1.62-1.51-4.2,0.11-5.76l8.69-8.37
			c0.01-0.02,0.03-0.23-0.18-0.45l-8.53-8.87c-1.56-1.62-1.51-4.2,0.11-5.76c1.62-1.56,4.2-1.51,5.76,0.11l8.53,8.87
			c1.56,1.62,2.43,3.74,2.46,5.95c0.02,2.31-0.86,4.45-2.5,6.02l-8.69,8.37C84.51,63.92,83.49,64.3,82.47,64.3z"/>
		<path class="st1" d="M77.7,148.7H60.65c-2.25,0-4.08-1.82-4.08-4.08s1.83-4.08,4.08-4.08H77.7c2.59,0,4.7-2.11,4.7-4.7v-18.82
			c0-2.25,1.83-4.08,4.08-4.08s4.08,1.82,4.08,4.08v18.82C90.55,142.94,84.79,148.7,77.7,148.7z"/>
		<path class="st1" d="M84.44,132.39H69.48c-2.25,0-4.08-1.82-4.08-4.08c0-2.25,1.83-4.08,4.08-4.08h14.96
			c2.25,0,4.08,1.82,4.08,4.08C88.51,130.56,86.69,132.39,84.44,132.39z"/>
	</g>
	<path class="st1" d="M20.39,71.38h-9.18c-2.25,0-4.08-1.82-4.08-4.08s1.83-4.08,4.08-4.08h9.18c2.25,0,4.08,1.82,4.08,4.08
		S22.64,71.38,20.39,71.38z"/>
	<path class="st1" d="M26.36,44.9c-0.76,0-1.53-0.21-2.21-0.66l-7.7-4.99c-1.89-1.22-2.43-3.75-1.2-5.64
		c1.22-1.89,3.75-2.43,5.64-1.2l7.7,4.99c1.89,1.22,2.43,3.75,1.2,5.64C29,44.25,27.7,44.9,26.36,44.9z"/>
	<path class="st1" d="M46.75,24.61c-1.41,0-2.78-0.73-3.53-2.04l-4.59-7.94c-1.13-1.95-0.46-4.44,1.49-5.57
		c1.95-1.13,4.44-0.46,5.57,1.49l4.59,7.94c1.13,1.95,0.46,4.44-1.49,5.57C48.14,24.43,47.44,24.61,46.75,24.61z"/>
	<path class="st1" d="M83.71,21.2c-2.25,0-4.08-1.82-4.08-4.08V7.95c0-2.25,1.83-4.08,4.08-4.08s4.08,1.82,4.08,4.08v9.17
		C87.78,19.38,85.96,21.2,83.71,21.2z"/>
</g>
</svg>
