<?xml version="1.0" encoding="utf-8"?>
<!-- Generator: Adobe Illustrator 26.2.1, SVG Export Plug-In . SVG Version: 6.00 Build 0)  -->
<svg version="1.1" id="Layer_1" xmlns="http://www.w3.org/2000/svg" xmlns:xlink="http://www.w3.org/1999/xlink" x="0px" y="0px"
	 viewBox="0 0 150 150" style="enable-background:new 0 0 150 150;" xml:space="preserve">
<style type="text/css">
	.st0{fill:#00D7FF;}
</style>
<g>
	<g>
		<g>
			<g>
				<path class="st0" d="M3.95,66.71c-2.19,0-3.96-1.77-3.96-3.96V38.69c0-21.15,15.23-38.35,33.94-38.35h14.55
					c2.19,0,3.96,1.77,3.96,3.96s-1.77,3.96-3.96,3.96H33.93c-14.34,0-26.01,13.65-26.01,30.42v24.06
					C7.91,64.94,6.14,66.71,3.95,66.71z"/>
				<path class="st0" d="M143.58,41.7H5.47c-2.21,0-4-1.79-4-4c0-2.21,1.79-4,4-4h138.11c2.21,0,4,1.79,4,4
					C147.58,39.91,145.79,41.7,143.58,41.7z"/>
			</g>
		</g>
		<path class="st0" d="M113.27,133.36h-9.31c-2.21,0-4-1.79-4-4c0-2.21,1.79-4,4-4h9.31c15.77,0,28.61-14.52,28.61-32.38l0.33-84.68
			H48.73c-2.21,0-4-1.79-4-4s1.79-4,4-4h97.49c1.06,0,2.08,0.42,2.83,1.18c0.75,0.75,1.17,1.78,1.17,2.84L149.88,93
			C149.88,115.25,133.46,133.36,113.27,133.36z"/>
	</g>
	<circle class="st0" cx="28.73" cy="21.09" r="4.09"/>
	<circle class="st0" cx="45.78" cy="21.09" r="4.09"/>
	<circle class="st0" cx="62.13" cy="21.09" r="4.09"/>
	<g id="_x34_LgIps_00000136386013456721931150000010924259695867933348_">
		<g>
			<path class="st0" d="M44.78,149.7c-0.14-0.34-0.49-0.27-0.75-0.34c-4.44-1.23-7.41-5.03-7.46-9.61c-0.03-2.77-0.02-5.54,0-8.32
				c0.01-1.98,1.48-3.46,3.36-3.45c1.85,0.01,3.28,1.47,3.29,3.4c0.02,2.64,0,5.28,0.01,7.92c0.01,2.2,1.31,3.57,3.49,3.61
				c2.09,0.04,4.17,0.05,6.26,0c2.08-0.05,3.37-1.41,3.38-3.5c0.02-2.54,0-5.09,0.01-7.63c0.01-2,0.76-3.08,2.65-3.73
				c1.48-0.51,2.91-1.1,4.31-1.8c1.68-0.84,3-0.6,4.35,0.73c1.78,1.77,3.55,3.55,5.33,5.32c1.68,1.67,3.52,1.71,5.25,0.11
				c1.48-1.37,2.97-2.75,4.43-4.14c1.61-1.53,1.65-3.5,0.1-5.08c-1.81-1.84-3.64-3.64-5.46-5.47c-1.39-1.4-1.59-2.64-0.71-4.42
				c0.7-1.43,1.32-2.9,1.84-4.41c0.59-1.73,1.67-2.48,3.53-2.49c2.48-0.01,4.96,0,7.44,0c2.42-0.01,3.75-1.33,3.77-3.74
				c0.01-1.96,0.01-3.91,0-5.87c-0.02-2.39-1.31-3.69-3.68-3.69c-2.41-0.01-4.83,0-7.24,0c-2.14,0-3.17-0.73-3.87-2.74
				c-0.49-1.41-1.06-2.79-1.73-4.14c-0.96-1.94-0.76-3.1,0.79-4.65c1.73-1.73,3.46-3.45,5.19-5.19c1.63-1.65,1.65-3.51,0.05-5.16
				c-1.45-1.5-2.89-3.01-4.36-4.49c-1.45-1.46-3.24-1.54-4.8-0.23c-1.68,1.41-3.65,1.36-4.95-0.11c-1.28-1.45-1.04-3.49,0.57-4.93
				c3.8-3.41,9.62-3.43,13.35,0.05c1.93,1.8,3.79,3.69,5.55,5.65c3.41,3.8,3.34,9.5-0.11,13.27c-1.25,1.37-2.62,2.63-3.98,3.91
				c-0.39,0.37-0.49,0.68-0.25,1.17c0.22,0.46,0.38,0.79,1.03,0.79c2.22-0.01,4.45-0.24,6.64,0.1c4.35,0.67,7.41,3.64,8.37,7.93
				c0.03,0.15-0.02,0.33,0.2,0.38c0,3.33,0,6.65,0,9.98c-0.44,3.08-2.17,5.3-4.71,6.96c-1.57,1.02-3.34,1.46-5.19,1.51
				c-1.66,0.04-3.32,0-4.99,0.01c-0.45,0-0.95-0.04-1.18,0.49c-0.23,0.53,0.14,0.85,0.46,1.18c1.22,1.27,2.46,2.51,3.66,3.8
				c3.46,3.72,3.7,9.93-0.18,14.05c-1.78,1.9-3.56,3.82-5.59,5.46c-4.12,3.32-10.5,2.98-14.03-0.94c-1-1.11-2.11-2.13-3.17-3.19
				c-0.28-0.28-0.57-0.56-1.02-0.39c-0.47,0.18-0.58,0.57-0.58,1.03c-0.01,1.66,0,3.32,0,4.99c0,4.33-2.58,8.06-6.59,9.62
				c-0.75,0.29-1.54,0.19-2.28,0.42C51.3,149.7,48.04,149.7,44.78,149.7z"/>
			<path class="st0" d="M54.56,49.51c1.21,0.43,2.49,0.66,3.6,1.35c3.18,1.97,4.88,4.81,4.99,8.54c0.08,2.74,0.03,5.48,0.01,8.22
				c-0.01,2-1.44,3.44-3.35,3.43c-1.9-0.01-3.29-1.45-3.3-3.48c-0.01-2.54,0-5.09-0.01-7.63c-0.01-2.33-1.36-3.69-3.71-3.71
				c-1.99-0.01-3.98-0.02-5.97,0c-2.29,0.02-3.62,1.38-3.63,3.67c-0.01,2.48,0,4.96,0,7.43c0,1.89-0.77,3.03-2.52,3.63
				c-1.57,0.53-3.09,1.19-4.58,1.92c-1.66,0.81-2.94,0.59-4.25-0.73c-1.7-1.72-3.37-3.45-5.05-5.18c-1.81-1.85-3.64-1.86-5.5-0.01
				c-1.36,1.36-2.72,2.72-4.08,4.08c-1.75,1.76-1.74,3.59,0.03,5.38c1.7,1.72,3.4,3.42,5.09,5.15c1.37,1.39,1.57,2.66,0.7,4.43
				c-0.69,1.4-1.29,2.83-1.79,4.32c-0.63,1.87-1.72,2.63-3.74,2.63c-2.48,0-4.96-0.01-7.43,0c-2.17,0.01-3.55,1.35-3.58,3.52
				c-0.03,2.05-0.03,4.11,0,6.16c0.04,2.12,1.41,3.45,3.53,3.47c2.51,0.01,5.02,0,7.53,0.01c2.09,0,3.11,0.72,3.8,2.68
				c0.52,1.47,1.12,2.91,1.82,4.3c0.84,1.68,0.62,2.99-0.72,4.35c-1.79,1.81-3.6,3.59-5.39,5.4c-1.63,1.64-1.64,3.51-0.03,5.16
				c1.44,1.47,2.87,2.94,4.33,4.39c1.5,1.5,3.28,1.55,4.88,0.18c1.6-1.37,3.6-1.32,4.88,0.14c1.27,1.44,1.08,3.45-0.45,4.87
				c-3.66,3.37-9.33,3.56-13.13,0.31c-2.15-1.84-4.16-3.86-6.02-6.01c-3.27-3.79-3.12-9.44,0.29-13.11c1.2-1.29,2.49-2.49,3.75-3.72
				c0.42-0.41,0.79-0.72,0.49-1.47c-0.32-0.79-0.85-0.62-1.4-0.64c-2.15-0.07-4.31,0.19-6.44-0.16c-4.3-0.71-7.43-3.81-8.27-8.13
				c-0.02-0.11-0.11-0.22-0.17-0.32c0-3.26,0-6.52,0-9.78c0.66-3.94,3.04-6.44,6.64-7.89c1.09-0.44,2.26-0.61,3.45-0.59
				c1.53,0.02,3.07,0.01,4.6,0c0.5,0,1,0,1.26-0.55c0.28-0.58-0.13-0.91-0.48-1.26c-1.08-1.09-2.17-2.16-3.25-3.25
				c-4.11-4.16-4.1-10.52,0.06-14.65c1.87-1.86,3.63-3.84,5.69-5.5c3.87-3.11,9.71-2.82,13.24,0.66c1.18,1.17,2.35,2.35,3.53,3.53
				c0.33,0.33,0.68,0.63,1.2,0.42c0.53-0.21,0.57-0.66,0.58-1.13c0.01-1.6,0-3.2,0-4.79c0.02-4.19,2.69-8.04,6.59-9.57
				c0.75-0.29,1.54-0.19,2.28-0.43C48.3,49.51,51.43,49.51,54.56,49.51z"/>
		</g>
	</g>
	<path class="st0" d="M49.95,124.83c-3.03,0-5.98-0.54-8.79-1.59c-2.07-0.78-3.11-3.09-2.33-5.15c0.78-2.07,3.09-3.11,5.15-2.33
		c1.91,0.72,3.92,1.08,5.97,1.08c9.35,0,16.96-7.61,16.96-16.96s-7.61-16.96-16.96-16.96S33,90.51,33,99.87
		c0,1.72,0.26,3.42,0.76,5.05c0.66,2.11-0.52,4.35-2.63,5.01c-2.11,0.66-4.35-0.52-5.01-2.63c-0.75-2.4-1.12-4.9-1.12-7.43
		c0-13.76,11.2-24.96,24.96-24.96s24.96,11.2,24.96,24.96S63.72,124.83,49.95,124.83z"/>
</g>
</svg>
