<?xml version="1.0" encoding="utf-8"?>
<!-- Generator: Adobe Illustrator 26.2.1, SVG Export Plug-In . SVG Version: 6.00 Build 0)  -->
<svg version="1.1" id="Layer_1" xmlns="http://www.w3.org/2000/svg" xmlns:xlink="http://www.w3.org/1999/xlink" x="0px" y="0px"
	 viewBox="0 0 167.07 150" style="enable-background:new 0 0 167.07 150;" xml:space="preserve">
<style type="text/css">
	.st0{fill:#00D7FF;}
	.st1{fill:#001E6B;}
</style>
<g>
	<g>
		<g>
			<g>
				<g>
					<path class="st0" d="M7.25-1572.78c-2.07,0-3.74-1.68-3.74-3.74v-69.71c0-19.97,14.38-36.22,32.06-36.22h13.74
						c2.07,0,3.74,1.68,3.74,3.74s-1.68,3.74-3.74,3.74H35.56c-13.55,0-24.57,12.89-24.57,28.73v69.71
						C10.99-1574.46,9.32-1572.78,7.25-1572.78z"/>
				</g>
			</g>
			<path class="st0" d="M56.04-1540.71c-0.93,0-1.86-0.35-2.57-1.01l-16.82-15.58h-13.8c-2.09,0-3.78-1.69-3.78-3.78
				c0-2.09,1.69-3.78,3.78-3.78h15.28c0.95,0,1.87,0.36,2.57,1.01l11.56,10.71v-7.28c0-2.09,1.69-3.78,3.78-3.78h38.11
				c2.09,0,3.78,1.69,3.78,3.78c0,2.09-1.69,3.78-3.78,3.78H59.82v12.16c0,1.5-0.89,2.86-2.27,3.46
				C57.07-1540.82,56.55-1540.71,56.04-1540.71z"/>
			<path class="st0" d="M125.68-1646.34c-0.01,0-0.02,0-0.02,0c-2.09-0.01-3.77-1.71-3.75-3.8l0.15-24.78h-72.5
				c-2.09,0-3.78-1.69-3.78-3.78c0-2.09,1.69-3.78,3.78-3.78h76.31c1.01,0,1.97,0.4,2.68,1.11c0.71,0.71,1.1,1.68,1.1,2.69
				l-0.18,28.59C129.44-1648.02,127.75-1646.34,125.68-1646.34z"/>
		</g>
	</g>
	<g>
		<g>
			<path class="st0" d="M141.91-1600.21c-1.08,0-2.15-0.46-2.89-1.35l-48.78-57.98c-1.34-1.6-1.14-3.98,0.46-5.32
				c1.6-1.34,3.98-1.14,5.32,0.46l48.78,57.98c1.34,1.6,1.14,3.98-0.46,5.32C143.63-1600.5,142.77-1600.21,141.91-1600.21z"/>
			<path class="st0" d="M96.19-1589.11c-1.08,0-2.16-0.46-2.9-1.35l-20.9-25.02c-0.67-0.8-0.97-1.83-0.85-2.87
				c0.12-1.03,0.66-1.97,1.5-2.59c12.86-9.56,12.28-20.82,12.25-21.3c-0.17-2.08,1.38-3.89,3.46-4.06c2.08-0.17,3.9,1.39,4.07,3.47
				c0.05,0.6,0.95,13.79-12.18,25.43l16.2,19.4c6.52-4.36,22.82-13.72,41.39-12.73c2.08,0.11,3.68,1.89,3.57,3.97
				c-0.11,2.08-1.89,3.69-3.97,3.57c-20.71-1.1-39.13,13.12-39.31,13.26C97.83-1589.37,97-1589.11,96.19-1589.11z"/>
			<path class="st0" d="M72.5-1571.98c-3.03,0-6.1-1.2-8.43-3.55l-10.17-10.27c-2.32-2.35-3.64-5.57-3.61-8.84
				c0.03-3.14,1.25-6.03,3.44-8.15c0.01-0.01,0.02-0.02,0.02-0.02l6.23-5.93c1.51-1.44,3.9-1.38,5.34,0.13
				c1.44,1.51,1.38,3.9-0.13,5.34l-6.21,5.91c-0.72,0.7-1.12,1.69-1.13,2.79c-0.01,1.27,0.5,2.52,1.42,3.45l10.17,10.27
				c1.57,1.58,3.88,1.79,5.37,0.47l15.83-13.94c1.57-1.38,3.95-1.23,5.33,0.34c1.38,1.57,1.23,3.95-0.34,5.33L79.8-1574.7
				C77.72-1572.88,75.12-1571.98,72.5-1571.98z"/>
			<path class="st0" d="M131.33-1619.06c-1.3,0-2.56-0.67-3.26-1.87c-1.06-1.8-0.45-4.11,1.35-5.17c5.28-3.1,7.32-9.48,4.54-14.22
				c-2.78-4.74-9.34-6.07-14.63-2.97c-1.33,0.78-2.47,1.77-3.4,2.95c-1.29,1.64-3.67,1.92-5.31,0.63c-1.64-1.29-1.92-3.67-0.63-5.31
				c1.51-1.92,3.37-3.53,5.51-4.78c8.88-5.21,20.08-2.67,24.97,5.66c4.89,8.33,1.64,19.35-7.24,24.56
				C132.64-1619.22,131.98-1619.06,131.33-1619.06z"/>
		</g>
		<path class="st0" d="M97.3-1556.32c-0.88,0-1.77-0.31-2.48-0.93l-20-17.44c-1.57-1.37-1.74-3.76-0.36-5.33
			c1.37-1.57,3.76-1.74,5.33-0.36l17.35,15.13l2.95-2.94l-14.98-13.92c-1.53-1.42-1.62-3.81-0.19-5.34
			c1.42-1.53,3.81-1.62,5.34-0.19l17.85,16.6c0.75,0.7,1.19,1.68,1.21,2.7c0.02,1.03-0.38,2.02-1.11,2.74l-8.24,8.19
			C99.23-1556.69,98.27-1556.32,97.3-1556.32z"/>
	</g>
	<path class="st0" d="M148.04-1642.07c-1.02,0-2.03-0.41-2.77-1.21c-1.42-1.53-1.33-3.92,0.21-5.34l8.87-8.21
		c1.53-1.42,3.92-1.33,5.34,0.21c1.42,1.53,1.33,3.92-0.21,5.34l-8.87,8.21C149.87-1642.4,148.95-1642.07,148.04-1642.07z"/>
	<path class="st0" d="M159.78-1617.24c-0.3,0-0.61-0.04-0.92-0.11l-13.14-3.29c-2.02-0.51-3.26-2.56-2.75-4.58
		c0.51-2.02,2.56-3.26,4.58-2.75l13.14,3.29c2.02,0.51,3.26,2.56,2.75,4.58C163.02-1618.38,161.48-1617.24,159.78-1617.24z"/>
</g>
<g>
	<g>
		<g>
			<path class="st1" d="M7.98,101.5c-2.36,0-4.27-1.91-4.27-4.27V38.44c0-19.02,13.71-34.49,30.55-34.49h12.76
				c2.36,0,4.27,1.91,4.27,4.27s-1.91,4.27-4.27,4.27H34.27c-12.14,0-22.01,11.64-22.01,25.96v58.79
				C12.25,99.59,10.34,101.5,7.98,101.5z"/>
		</g>
	</g>
	<path class="st1" d="M77.71,128.36H32.3c-2.36,0-4.27-1.91-4.27-4.27s1.91-4.27,4.27-4.27h45.41c2.36,0,4.27,1.91,4.27,4.27
		S80.07,128.36,77.71,128.36z"/>
	<path class="st1" d="M132.64,37.51c-0.01,0-0.01,0-0.02,0c-2.36-0.01-4.26-1.93-4.25-4.28l0.07-20.74H47.25
		c-2.36,0-4.27-1.91-4.27-4.27s1.91-4.27,4.27-4.27h85.48c1.13,0,2.22,0.45,3.02,1.26c0.8,0.8,1.25,1.89,1.25,3.03l-0.09,25.02
		C136.9,35.61,134.99,37.51,132.64,37.51z"/>
	<path class="st1" d="M142.9,146.05H95.27c-11.28,0-20.46-9.18-20.46-20.46V51.05c0-11.28,9.18-20.46,20.46-20.46h47.63
		c11.28,0,20.46,9.18,20.46,20.46v74.54C163.35,136.87,154.18,146.05,142.9,146.05z M95.27,39.13c-6.57,0-11.92,5.35-11.92,11.92
		v74.54c0,6.57,5.35,11.92,11.92,11.92h47.63c6.57,0,11.92-5.35,11.92-11.92V51.05c0-6.57-5.35-11.92-11.92-11.92H95.27z"/>
	<path class="st1" d="M137.55,75.88h-36.01c-5.12,0-9.28-4.16-9.28-9.28s4.16-9.28,9.28-9.28h36.01c5.12,0,9.28,4.16,9.28,9.28
		S142.67,75.88,137.55,75.88z"/>
	<circle class="st1" cx="101.35" cy="88.32" r="4.64"/>
	<circle class="st1" cx="119.17" cy="88.32" r="4.64"/>
	<circle class="st1" cx="137" cy="88.32" r="4.64"/>
	<circle class="st1" cx="101.35" cy="106.14" r="4.64"/>
	<circle class="st1" cx="119.17" cy="106.14" r="4.64"/>
	<circle class="st1" cx="137" cy="106.14" r="4.64"/>
	<circle class="st1" cx="101.35" cy="123.96" r="4.64"/>
	<circle class="st1" cx="119.17" cy="123.96" r="4.64"/>
	<circle class="st1" cx="137" cy="123.96" r="4.64"/>
	<path class="st1" d="M25.99,90.55c-2.36,0-4.27-1.91-4.27-4.27V43.77c0-2.36,1.91-4.27,4.27-4.27s4.27,1.91,4.27,4.27v42.51
		C30.26,88.64,28.35,90.55,25.99,90.55z"/>
	<path class="st1" d="M43.81,90.55c-2.36,0-4.27-1.91-4.27-4.27V60.66c0-2.36,1.91-4.27,4.27-4.27c2.36,0,4.27,1.91,4.27,4.27v25.62
		C48.08,88.64,46.17,90.55,43.81,90.55z"/>
	<path class="st1" d="M62,90.55c-2.36,0-4.27-1.91-4.27-4.27V43.99c0-2.36,1.91-4.27,4.27-4.27c2.36,0,4.27,1.91,4.27,4.27v42.29
		C66.27,88.64,64.36,90.55,62,90.55z"/>
	<path class="st1" d="M66.27,92.68H20.98c-2.36,0-4.27-1.91-4.27-4.27s1.91-4.27,4.27-4.27h45.29c2.36,0,4.27,1.91,4.27,4.27
		S68.63,92.68,66.27,92.68z"/>
</g>
</svg>
