<?xml version="1.0" encoding="utf-8"?>
<!-- Generator: Adobe Illustrator 26.2.1, SVG Export Plug-In . SVG Version: 6.00 Build 0)  -->
<svg version="1.1" id="Layer_1" xmlns="http://www.w3.org/2000/svg" xmlns:xlink="http://www.w3.org/1999/xlink" x="0px" y="0px"
	 viewBox="0 0 150 150" style="enable-background:new 0 0 150 150;" xml:space="preserve">
<style type="text/css">
	.st0{fill:#00D7FF;}
</style>
<g>
	<g>
		<g>
			<g>
				<g>
					<path class="st0" d="M-1.28-1572.78c-2.07,0-3.74-1.68-3.74-3.74v-69.71c0-19.97,14.38-36.22,32.06-36.22h13.74
						c2.07,0,3.74,1.68,3.74,3.74s-1.68,3.74-3.74,3.74H27.03c-13.55,0-24.57,12.89-24.57,28.73v69.71
						C2.46-1574.46,0.78-1572.78-1.28-1572.78z"/>
				</g>
			</g>
			<path class="st0" d="M47.51-1540.71c-0.93,0-1.86-0.35-2.57-1.01l-16.82-15.58h-13.8c-2.09,0-3.78-1.69-3.78-3.78
				c0-2.09,1.69-3.78,3.78-3.78H29.6c0.95,0,1.87,0.36,2.57,1.01l11.56,10.71v-7.28c0-2.09,1.69-3.78,3.78-3.78h38.11
				c2.09,0,3.78,1.69,3.78,3.78c0,2.09-1.69,3.78-3.78,3.78H51.28v12.16c0,1.5-0.89,2.86-2.27,3.46
				C48.53-1540.82,48.02-1540.71,47.51-1540.71z"/>
			<path class="st0" d="M117.14-1646.34c-0.01,0-0.02,0-0.02,0c-2.09-0.01-3.77-1.71-3.75-3.8l0.15-24.78h-72.5
				c-2.09,0-3.78-1.69-3.78-3.78c0-2.09,1.69-3.78,3.78-3.78h76.31c1.01,0,1.97,0.4,2.68,1.11c0.71,0.71,1.1,1.68,1.1,2.69
				l-0.18,28.59C120.91-1648.02,119.22-1646.34,117.14-1646.34z"/>
		</g>
	</g>
	<g>
		<g>
			<path class="st0" d="M133.38-1600.21c-1.08,0-2.15-0.46-2.89-1.35l-48.78-57.98c-1.34-1.6-1.14-3.98,0.46-5.32
				c1.6-1.34,3.98-1.14,5.32,0.46l48.78,57.98c1.34,1.6,1.14,3.98-0.46,5.32C135.1-1600.5,134.23-1600.21,133.38-1600.21z"/>
			<path class="st0" d="M87.65-1589.11c-1.08,0-2.16-0.46-2.9-1.35l-20.9-25.02c-0.67-0.8-0.97-1.83-0.85-2.87
				c0.12-1.03,0.66-1.97,1.5-2.59c12.86-9.56,12.28-20.82,12.25-21.3c-0.17-2.08,1.38-3.89,3.46-4.06c2.08-0.17,3.9,1.39,4.07,3.47
				c0.05,0.6,0.95,13.79-12.18,25.43l16.2,19.4c6.52-4.36,22.82-13.72,41.39-12.73c2.08,0.11,3.68,1.89,3.57,3.97
				c-0.11,2.08-1.89,3.69-3.97,3.57c-20.71-1.1-39.13,13.12-39.31,13.26C89.29-1589.37,88.47-1589.11,87.65-1589.11z"/>
			<path class="st0" d="M63.96-1571.98c-3.03,0-6.1-1.2-8.43-3.55l-10.17-10.27c-2.32-2.35-3.64-5.57-3.61-8.84
				c0.03-3.14,1.25-6.03,3.44-8.15c0.01-0.01,0.02-0.02,0.02-0.02l6.23-5.93c1.51-1.44,3.9-1.38,5.34,0.13
				c1.44,1.51,1.38,3.9-0.13,5.34l-6.21,5.91c-0.72,0.7-1.12,1.69-1.13,2.79c-0.01,1.27,0.5,2.52,1.42,3.45l10.17,10.27
				c1.57,1.58,3.88,1.79,5.37,0.47l15.83-13.94c1.57-1.38,3.95-1.23,5.33,0.34c1.38,1.57,1.23,3.95-0.34,5.33l-15.82,13.94
				C69.19-1572.88,66.59-1571.98,63.96-1571.98z"/>
			<path class="st0" d="M122.8-1619.06c-1.3,0-2.56-0.67-3.26-1.87c-1.06-1.8-0.45-4.11,1.35-5.17c5.28-3.1,7.32-9.48,4.54-14.22
				c-2.78-4.74-9.34-6.07-14.63-2.97c-1.33,0.78-2.47,1.77-3.4,2.95c-1.29,1.64-3.67,1.92-5.31,0.63c-1.64-1.29-1.92-3.67-0.63-5.31
				c1.51-1.92,3.37-3.53,5.51-4.78c8.88-5.21,20.08-2.67,24.97,5.66c4.89,8.33,1.64,19.35-7.24,24.56
				C124.11-1619.22,123.45-1619.06,122.8-1619.06z"/>
		</g>
		<path class="st0" d="M88.77-1556.32c-0.88,0-1.77-0.31-2.48-0.93l-20-17.44c-1.57-1.37-1.74-3.76-0.36-5.33
			c1.37-1.57,3.76-1.74,5.33-0.36l17.35,15.13l2.95-2.94l-14.98-13.92c-1.53-1.42-1.62-3.81-0.19-5.34
			c1.42-1.53,3.81-1.62,5.34-0.19l17.85,16.6c0.75,0.7,1.19,1.68,1.21,2.7c0.02,1.03-0.38,2.02-1.11,2.74l-8.24,8.19
			C90.7-1556.69,89.74-1556.32,88.77-1556.32z"/>
	</g>
	<path class="st0" d="M139.5-1642.07c-1.02,0-2.03-0.41-2.77-1.21c-1.42-1.53-1.33-3.92,0.21-5.34l8.87-8.21
		c1.53-1.42,3.92-1.33,5.34,0.21c1.42,1.53,1.33,3.92-0.21,5.34l-8.87,8.21C141.34-1642.4,140.42-1642.07,139.5-1642.07z"/>
	<path class="st0" d="M151.25-1617.24c-0.3,0-0.61-0.04-0.92-0.11l-13.14-3.29c-2.02-0.51-3.26-2.56-2.75-4.58
		c0.51-2.02,2.56-3.26,4.58-2.75l13.14,3.29c2.02,0.51,3.26,2.56,2.75,4.58C154.48-1618.38,152.94-1617.24,151.25-1617.24z"/>
</g>
<g>
	<path class="st0" d="M118.13,145.88h-7.57c-6.52,0-11.82-5.3-11.82-11.82V94.95c0-6.52,5.3-11.82,11.82-11.82h7.57
		c6.52,0,11.82,5.3,11.82,11.82v39.12C129.95,140.58,124.65,145.88,118.13,145.88z M110.56,90.69c-2.35,0-4.26,1.91-4.26,4.26v39.12
		c0,2.35,1.91,4.26,4.26,4.26h7.57c2.35,0,4.26-1.91,4.26-4.26V94.95c0-2.35-1.91-4.26-4.26-4.26H110.56z"/>
	<path class="st0" d="M78.71,145.88h-7.57c-6.52,0-11.82-5.3-11.82-11.82v-23.35c0-6.52,5.3-11.82,11.82-11.82h7.57
		c6.52,0,11.82,5.3,11.82,11.82v23.35C90.52,140.58,85.22,145.88,78.71,145.88z M71.13,106.46c-2.35,0-4.26,1.91-4.26,4.26v23.35
		c0,2.35,1.91,4.26,4.26,4.26h7.57c2.35,0,4.26-1.91,4.26-4.26v-23.35c0-2.35-1.91-4.26-4.26-4.26H71.13z"/>
	<path class="st0" d="M39.28,145.88H31.7c-6.52,0-11.82-5.3-11.82-11.82v-7.25c0-6.52,5.3-11.82,11.82-11.82h7.57
		c6.52,0,11.82,5.3,11.82,11.82v7.25C51.1,140.58,45.8,145.88,39.28,145.88z M31.7,122.56c-2.35,0-4.26,1.91-4.26,4.26v7.25
		c0,2.35,1.91,4.26,4.26,4.26h7.57c2.35,0,4.26-1.91,4.26-4.26v-7.25c0-2.35-1.91-4.26-4.26-4.26H31.7z"/>
	<path class="st0" d="M48.88,98.44H31.38c-2.09,0-3.78-1.69-3.78-3.78c0-2.09,1.69-3.78,3.78-3.78H47.2l13.09-14.4
		c0.72-0.79,1.73-1.24,2.8-1.24h21.43l11.72-11.71c1.48-1.47,3.87-1.47,5.34,0c1.48,1.48,1.47,3.87,0,5.34L88.75,81.7
		c-0.71,0.71-1.67,1.11-2.67,1.11H64.76L51.67,97.2C50.95,97.99,49.94,98.44,48.88,98.44z"/>
	<path class="st0" d="M110.57,74.76c-2.09,0-3.78-1.69-3.78-3.78V59.32c0-0.12-0.22-0.34-0.59-0.34H94.3
		c-2.09,0-3.78-1.69-3.78-3.78c0-2.09,1.69-3.78,3.78-3.78h11.89c4.49,0,8.15,3.54,8.15,7.9v11.66
		C114.34,73.07,112.65,74.76,110.57,74.76z"/>
	<path class="st0" d="M127.65,120.82c-0.83,0-1.66-0.27-2.35-0.82c-1.63-1.3-1.9-3.68-0.6-5.31c9.03-11.33,13.8-25,13.8-39.52
		c0-8.27-1.57-16.32-4.65-23.91c-0.79-1.93,0.14-4.14,2.08-4.92c1.93-0.79,4.14,0.14,4.92,2.08c3.46,8.5,5.21,17.5,5.21,26.75
		c0,16.25-5.34,31.55-15.44,44.23C129.86,120.33,128.76,120.82,127.65,120.82z"/>
	<path class="st0" d="M13.22,105.6c-1.46,0-2.85-0.85-3.47-2.28c-3.85-8.91-5.8-18.38-5.8-28.16c0-18.98,7.39-36.82,20.81-50.24
		C38.18,11.51,56.02,4.12,75,4.12c12.75,0,25.26,3.42,36.17,9.88c1.8,1.06,2.39,3.38,1.32,5.18c-1.06,1.8-3.38,2.39-5.18,1.32
		C97.57,14.72,86.4,11.67,75,11.67c-35.01,0-63.49,28.48-63.49,63.49c0,8.74,1.74,17.21,5.18,25.16c0.83,1.92-0.05,4.14-1.97,4.97
		C14.23,105.5,13.72,105.6,13.22,105.6z"/>
	<g>
		<path class="st0" d="M121.83,25.96c0,4.87-3.69,7.12-7.74,7.12s-7.74-2.25-7.74-7.12v-4.87c0-4.87,3.69-7.12,7.74-7.12
			s7.74,2.25,7.74,7.12V25.96z M115.88,21.3c0-1.49-0.77-2-1.79-2c-1.02,0-1.79,0.51-1.79,2v4.46c0,1.49,0.77,2,1.79,2
			c1.02,0,1.79-0.51,1.79-2V21.3z M130.67,16.69c0.64-1.28,0.92-1.67,1.46-2.08c0.49-0.36,0.95-0.54,1.54-0.54
			c0.51,0,0.92,0.13,1.41,0.36c1.08,0.54,1.61,1.43,1.61,2.46c0,0.67-0.15,1.13-0.79,2.41l-14.58,29.05
			c-0.64,1.28-0.92,1.67-1.46,2.08c-0.49,0.36-0.95,0.54-1.54,0.54c-0.51,0-0.92-0.13-1.41-0.36c-1.08-0.54-1.61-1.43-1.61-2.46
			c0-0.67,0.15-1.13,0.79-2.41L130.67,16.69z M145.65,43.95c0,4.87-3.69,7.12-7.74,7.12c-4.05,0-7.74-2.25-7.74-7.12v-4.87
			c0-4.87,3.69-7.12,7.74-7.12c4.05,0,7.74,2.25,7.74,7.12V43.95z M139.71,39.28c0-1.49-0.77-2-1.79-2s-1.79,0.51-1.79,2v4.46
			c0,1.49,0.77,2,1.79,2s1.79-0.51,1.79-2V39.28z"/>
	</g>
</g>
</svg>
