<?xml version="1.0" encoding="utf-8"?>
<!-- Generator: Adobe Illustrator 26.2.1, SVG Export Plug-In . SVG Version: 6.00 Build 0)  -->
<svg version="1.1" id="Layer_1" xmlns="http://www.w3.org/2000/svg" xmlns:xlink="http://www.w3.org/1999/xlink" x="0px" y="0px"
	 viewBox="0 0 164.41 150" style="enable-background:new 0 0 164.41 150;" xml:space="preserve">
<style type="text/css">
	.st0{fill:#00D7FF;}
</style>
<g>
	<g>
		<g>
			<g>
				<g>
					<path class="st0" d="M5.92,113.82c-2.07,0-3.74-1.68-3.74-3.74V40.37c0-19.97,14.38-36.22,32.06-36.22h13.74
						c2.07,0,3.74,1.68,3.74,3.74s-1.68,3.74-3.74,3.74H34.24c-13.55,0-24.57,12.89-24.57,28.73v69.71
						C9.67,112.14,7.99,113.82,5.92,113.82z"/>
				</g>
			</g>
			<path class="st0" d="M54.71,145.89c-0.93,0-1.86-0.35-2.57-1.01l-16.82-15.58h-13.8c-2.09,0-3.78-1.69-3.78-3.78
				c0-2.09,1.69-3.78,3.78-3.78h15.28c0.95,0,1.87,0.36,2.57,1.01l11.56,10.71v-7.28c0-2.09,1.69-3.78,3.78-3.78h38.11
				c2.09,0,3.78,1.69,3.78,3.78c0,2.09-1.69,3.78-3.78,3.78H58.49v12.16c0,1.5-0.89,2.86-2.27,3.46
				C55.74,145.78,55.22,145.89,54.71,145.89z"/>
			<path class="st0" d="M124.35,40.26c-0.01,0-0.02,0-0.02,0c-2.09-0.01-3.77-1.71-3.75-3.8l0.15-24.78h-72.5
				c-2.09,0-3.78-1.69-3.78-3.78s1.69-3.78,3.78-3.78h76.31c1.01,0,1.97,0.4,2.68,1.11c0.71,0.71,1.1,1.68,1.1,2.69l-0.18,28.59
				C128.12,38.58,126.43,40.26,124.35,40.26z"/>
		</g>
	</g>
	<g>
		<g>
			<path class="st0" d="M140.58,86.39c-1.08,0-2.15-0.46-2.89-1.35L88.91,27.06c-1.34-1.6-1.14-3.98,0.46-5.32
				c1.6-1.34,3.98-1.14,5.32,0.46l48.78,57.98c1.34,1.6,1.14,3.98-0.46,5.32C142.3,86.1,141.44,86.39,140.58,86.39z"/>
			<path class="st0" d="M94.86,97.49c-1.08,0-2.16-0.46-2.9-1.35l-20.9-25.02c-0.67-0.8-0.97-1.83-0.85-2.87
				c0.12-1.03,0.66-1.97,1.5-2.59c12.86-9.56,12.28-20.82,12.25-21.3c-0.17-2.08,1.38-3.89,3.46-4.06c2.08-0.17,3.9,1.39,4.07,3.47
				c0.05,0.6,0.95,13.79-12.18,25.43l16.2,19.4c6.52-4.36,22.82-13.72,41.39-12.73c2.08,0.11,3.68,1.89,3.57,3.97
				c-0.11,2.08-1.89,3.69-3.97,3.57c-20.71-1.1-39.13,13.12-39.31,13.26C96.5,97.23,95.68,97.49,94.86,97.49z"/>
			<path class="st0" d="M71.17,114.62c-3.03,0-6.1-1.2-8.43-3.55L52.57,100.8c-2.32-2.35-3.64-5.57-3.61-8.84
				c0.03-3.14,1.25-6.03,3.44-8.15c0.01-0.01,0.02-0.02,0.02-0.02l6.23-5.93c1.51-1.44,3.9-1.38,5.34,0.13
				c1.44,1.51,1.38,3.9-0.13,5.34l-6.21,5.91c-0.72,0.7-1.12,1.69-1.13,2.79c-0.01,1.27,0.5,2.52,1.42,3.45l10.17,10.27
				c1.57,1.58,3.88,1.79,5.37,0.47L89.3,92.28c1.57-1.38,3.95-1.23,5.33,0.34c1.38,1.57,1.23,3.95-0.34,5.33l-15.82,13.94
				C76.4,113.72,73.8,114.62,71.17,114.62z"/>
			<path class="st0" d="M130.01,67.54c-1.3,0-2.56-0.67-3.26-1.87c-1.06-1.8-0.45-4.11,1.35-5.17c5.28-3.1,7.32-9.48,4.54-14.22
				c-2.78-4.74-9.34-6.07-14.63-2.97c-1.33,0.78-2.47,1.77-3.4,2.95c-1.29,1.64-3.67,1.92-5.31,0.63c-1.64-1.29-1.92-3.67-0.63-5.31
				c1.51-1.92,3.37-3.53,5.51-4.78c8.88-5.21,20.08-2.67,24.97,5.66c4.89,8.33,1.64,19.35-7.24,24.56
				C131.31,67.38,130.65,67.54,130.01,67.54z"/>
		</g>
		<path class="st0" d="M95.98,130.28c-0.88,0-1.77-0.31-2.48-0.93l-20-17.44c-1.57-1.37-1.74-3.76-0.36-5.33
			c1.37-1.57,3.76-1.74,5.33-0.36l17.35,15.13l2.95-2.94l-14.98-13.92c-1.53-1.42-1.62-3.81-0.19-5.34
			c1.42-1.53,3.81-1.62,5.34-0.19l17.85,16.6c0.75,0.7,1.19,1.68,1.21,2.7c0.02,1.03-0.38,2.02-1.11,2.74l-8.24,8.19
			C97.91,129.91,96.94,130.28,95.98,130.28z"/>
	</g>
	<path class="st0" d="M146.71,44.53c-1.02,0-2.03-0.41-2.77-1.21c-1.42-1.53-1.33-3.92,0.21-5.34l8.87-8.21
		c1.53-1.42,3.92-1.33,5.34,0.21c1.42,1.53,1.33,3.92-0.21,5.34l-8.87,8.21C148.55,44.2,147.63,44.53,146.71,44.53z"/>
	<path class="st0" d="M158.46,69.36c-0.3,0-0.61-0.04-0.92-0.11l-13.14-3.29c-2.02-0.51-3.26-2.56-2.75-4.58
		c0.51-2.02,2.56-3.26,4.58-2.75l13.14,3.29c2.02,0.51,3.26,2.56,2.75,4.58C161.69,68.22,160.15,69.36,158.46,69.36z"/>
</g>
</svg>
