<?xml version="1.0" encoding="utf-8"?>
<!-- Generator: Adobe Illustrator 26.2.1, SVG Export Plug-In . SVG Version: 6.00 Build 0)  -->
<svg version="1.1" id="Layer_1" xmlns="http://www.w3.org/2000/svg" xmlns:xlink="http://www.w3.org/1999/xlink" x="0px" y="0px"
	 viewBox="0 0 150 150" style="enable-background:new 0 0 150 150;" xml:space="preserve">
<style type="text/css">
	.st0{fill:#00D7FF;}
</style>
<g>
	<g>
		<g>
			<g>
				<g>
					<path class="st0" d="M-1.28-1572.78c-2.07,0-3.74-1.68-3.74-3.74v-69.71c0-19.97,14.38-36.22,32.06-36.22h13.74
						c2.07,0,3.74,1.68,3.74,3.74s-1.68,3.74-3.74,3.74H27.03c-13.55,0-24.57,12.89-24.57,28.73v69.71
						C2.46-1574.46,0.78-1572.78-1.28-1572.78z"/>
				</g>
			</g>
			<path class="st0" d="M47.51-1540.71c-0.93,0-1.86-0.35-2.57-1.01l-16.82-15.58h-13.8c-2.09,0-3.78-1.69-3.78-3.78
				c0-2.09,1.69-3.78,3.78-3.78H29.6c0.95,0,1.87,0.36,2.57,1.01l11.56,10.71v-7.28c0-2.09,1.69-3.78,3.78-3.78h38.11
				c2.09,0,3.78,1.69,3.78,3.78c0,2.09-1.69,3.78-3.78,3.78H51.28v12.16c0,1.5-0.89,2.86-2.27,3.46
				C48.53-1540.82,48.02-1540.71,47.51-1540.71z"/>
			<path class="st0" d="M117.14-1646.34c-0.01,0-0.02,0-0.02,0c-2.09-0.01-3.77-1.71-3.75-3.8l0.15-24.78h-72.5
				c-2.09,0-3.78-1.69-3.78-3.78c0-2.09,1.69-3.78,3.78-3.78h76.31c1.01,0,1.97,0.4,2.68,1.11c0.71,0.71,1.1,1.68,1.1,2.69
				l-0.18,28.59C120.91-1648.02,119.22-1646.34,117.14-1646.34z"/>
		</g>
	</g>
	<g>
		<g>
			<path class="st0" d="M133.38-1600.21c-1.08,0-2.15-0.46-2.89-1.35l-48.78-57.98c-1.34-1.6-1.14-3.98,0.46-5.32
				c1.6-1.34,3.98-1.14,5.32,0.46l48.78,57.98c1.34,1.6,1.14,3.98-0.46,5.32C135.1-1600.5,134.23-1600.21,133.38-1600.21z"/>
			<path class="st0" d="M87.65-1589.11c-1.08,0-2.16-0.46-2.9-1.35l-20.9-25.02c-0.67-0.8-0.97-1.83-0.85-2.87
				c0.12-1.03,0.66-1.97,1.5-2.59c12.86-9.56,12.28-20.82,12.25-21.3c-0.17-2.08,1.38-3.89,3.46-4.06c2.08-0.17,3.9,1.39,4.07,3.47
				c0.05,0.6,0.95,13.79-12.18,25.43l16.2,19.4c6.52-4.36,22.82-13.72,41.39-12.73c2.08,0.11,3.68,1.89,3.57,3.97
				c-0.11,2.08-1.89,3.69-3.97,3.57c-20.71-1.1-39.13,13.12-39.31,13.26C89.29-1589.37,88.47-1589.11,87.65-1589.11z"/>
			<path class="st0" d="M63.96-1571.98c-3.03,0-6.1-1.2-8.43-3.55l-10.17-10.27c-2.32-2.35-3.64-5.57-3.61-8.84
				c0.03-3.14,1.25-6.03,3.44-8.15c0.01-0.01,0.02-0.02,0.02-0.02l6.23-5.93c1.51-1.44,3.9-1.38,5.34,0.13
				c1.44,1.51,1.38,3.9-0.13,5.34l-6.21,5.91c-0.72,0.7-1.12,1.69-1.13,2.79c-0.01,1.27,0.5,2.52,1.42,3.45l10.17,10.27
				c1.57,1.58,3.88,1.79,5.37,0.47l15.83-13.94c1.57-1.38,3.95-1.23,5.33,0.34c1.38,1.57,1.23,3.95-0.34,5.33l-15.82,13.94
				C69.19-1572.88,66.59-1571.98,63.96-1571.98z"/>
			<path class="st0" d="M122.8-1619.06c-1.3,0-2.56-0.67-3.26-1.87c-1.06-1.8-0.45-4.11,1.35-5.17c5.28-3.1,7.32-9.48,4.54-14.22
				c-2.78-4.74-9.34-6.07-14.63-2.97c-1.33,0.78-2.47,1.77-3.4,2.95c-1.29,1.64-3.67,1.92-5.31,0.63c-1.64-1.29-1.92-3.67-0.63-5.31
				c1.51-1.92,3.37-3.53,5.51-4.78c8.88-5.21,20.08-2.67,24.97,5.66c4.89,8.33,1.64,19.35-7.24,24.56
				C124.11-1619.22,123.45-1619.06,122.8-1619.06z"/>
		</g>
		<path class="st0" d="M88.77-1556.32c-0.88,0-1.77-0.31-2.48-0.93l-20-17.44c-1.57-1.37-1.74-3.76-0.36-5.33
			c1.37-1.57,3.76-1.74,5.33-0.36l17.35,15.13l2.95-2.94l-14.98-13.92c-1.53-1.42-1.62-3.81-0.19-5.34
			c1.42-1.53,3.81-1.62,5.34-0.19l17.85,16.6c0.75,0.7,1.19,1.68,1.21,2.7c0.02,1.03-0.38,2.02-1.11,2.74l-8.24,8.19
			C90.7-1556.69,89.74-1556.32,88.77-1556.32z"/>
	</g>
	<path class="st0" d="M139.5-1642.07c-1.02,0-2.03-0.41-2.77-1.21c-1.42-1.53-1.33-3.92,0.21-5.34l8.87-8.21
		c1.53-1.42,3.92-1.33,5.34,0.21c1.42,1.53,1.33,3.92-0.21,5.34l-8.87,8.21C141.34-1642.4,140.42-1642.07,139.5-1642.07z"/>
	<path class="st0" d="M151.25-1617.24c-0.3,0-0.61-0.04-0.92-0.11l-13.14-3.29c-2.02-0.51-3.26-2.56-2.75-4.58
		c0.51-2.02,2.56-3.26,4.58-2.75l13.14,3.29c2.02,0.51,3.26,2.56,2.75,4.58C154.48-1618.38,152.94-1617.24,151.25-1617.24z"/>
</g>
<g>
	<path class="st0" d="M142.05,19.12c-0.03-7.18-5.06-13.47-11.96-14.95c-1.95-0.42-3.97-0.51-5.77-0.53
		c-0.32-0.07-0.67-0.1-1.08-0.1c-9.29-0.01-35.5-0.01-44.79,0c-9.86,0.01-16.76,6.91-16.78,16.78c-0.01,4.57-0.01,9.15,0,13.72
		l0,7.12c-0.11-0.01-0.21-0.03-0.31-0.04c-0.57-0.07-1.11-0.14-1.66-0.14l-9.05-0.01c-9.85-0.02-20.03-0.03-30.04,0.04
		C14.65,41.05,9.34,45.52,8.24,51.4C7.9,53.23,7.92,64.86,7.92,71.11c0,1.73,0,3.02,0,3.53c-0.01,0.82,0.21,1.47,0.66,1.92
		c0.44,0.45,1.07,0.68,1.86,0.68c0,0,0.01,0,0.01,0c1.54,0,2.5-0.95,2.58-2.55c0.05-0.95,0.03-11.07,0.02-16.5c0-1.79,0-3.08,0-3.39
		c0.02-5.35,3.34-8.68,8.66-8.69c12.29-0.01,24.58-0.01,36.87,0c5.35,0.01,8.67,3.34,8.68,8.7c0.01,8.77,0,17.55,0,26.32l0,11.28
		c-0.37,0-0.73-0.01-1.08-0.01c-1.09-0.01-2.13-0.03-3.17,0.02c-4.47,0.22-7.96,2.94-9.34,7.27c-0.13,0.41-0.37,0.79-0.61,0.98
		c-2.55,2.02-5.18,4.03-7.71,5.98l-0.61,0.47c-0.04,0.03-0.08,0.06-0.13,0.09V104c0-3.12-0.71-3.84-3.78-3.84
		c-2.05,0-4.11,0-6.16,0.01c-4.37,0.01-8.74,0.01-13.1-0.02c-5.24-0.04-8.5-3.31-8.52-8.55c0-1.08,0-1.69,0-2.01
		c0.01-0.09,0.01-0.19,0.01-0.26l-0.01-0.59h-0.03c-0.07-0.82-0.4-1.51-0.94-1.94c-0.56-0.45-1.32-0.62-2.15-0.46
		c-2.05,0.38-2.05,2.23-2.05,2.84c0.01,1.47,0.06,4.48,0.22,5.31c1.27,6.52,6.55,10.77,13.47,10.83c3.85,0.03,7.71,0.02,11.56,0.02
		c1.69,0,3.38-0.01,5.08-0.01h1.25l0,1.66c0,1.65,0.01,3.23-0.01,4.81c-0.01,0.77-0.02,2.21,1.38,2.94c1.35,0.7,2.44,0.09,3.32-0.6
		c2.32-1.81,4.65-3.6,6.98-5.4l1.57-1.21c0.18-0.14,0.37-0.27,0.58-0.42l-0.01,7.28c-0.01,4.88-0.01,9.76,0.02,14.64
		c0.04,6.28,4.32,10.51,10.65,10.53c2.45,0.01,4.89,0,7.34,0l4.37,0c0,0.26,0.01,0.51,0.01,0.75c0.01,0.83,0.03,1.62-0.03,2.38
		c-0.13,1.59,0.37,2.8,1.53,3.69l0.13,0.1h2.01l0.14-0.11c0.66-0.52,1.32-1.03,1.98-1.54c1.53-1.19,3.12-2.41,4.62-3.7
		c1.37-1.17,2.76-1.65,4.53-1.63c4.63,0.11,8.57-3.01,9.58-7.49c0.29-1.27,0.35-2.56,0.36-3.49c0.03-0.18,0.04-0.36,0.05-0.56
		c0.04-3,0.02-21.3,0.01-24.53c-0.02-6.88-4.14-11-11.02-11.02c-3.73-0.01-7.46-0.01-11.19,0l-5.86,0v-9.35
		c5.61,0.92,11.3,0.82,16.81,0.72c3.66-0.06,7.44-0.13,11.17,0.1l0,2.21c0,2.25,0.01,4.46-0.01,6.67c-0.01,1.12,0.15,2.26,1.41,2.92
		c1.36,0.72,2.43,0.05,3.31-0.63l0.79-0.61c4.28-3.29,8.7-6.69,13.09-9.97c0.49-0.36,1.24-0.62,1.98-0.67
		c0.98-0.07,1.99-0.05,2.97-0.04c0.71,0.01,1.43,0.02,2.14,0c8.85-0.24,15.82-7.08,15.87-15.57
		C142.13,53.53,142.13,37.94,142.05,19.12z M81.49,138.19l-0.59,0.43c-0.02,0.02-0.05,0.03-0.08,0.05v-0.63
		c-0.01-2.89-0.76-3.64-3.67-3.64l-12.75,0c-4.11,0-5.95-1.83-5.95-5.92c-0.01-8.32-0.01-16.63,0-24.95c0-4.17,1.77-5.96,5.92-5.96
		c4.18,0,8.36,0,12.54,0s8.36,0,12.54,0c4.12,0,5.96,1.83,5.97,5.92c0.01,2.67,0,18.01,0,23.12c-0.01,0.38,0,0.75,0,1.13
		c0,0.49,0,0.98-0.01,1.47c-0.05,1.68-0.61,3.05-1.62,3.97c-0.93,0.85-2.2,1.25-3.66,1.17c-2.79-0.16-4.98,0.62-6.88,2.45
		C82.73,137.29,82.13,137.73,81.49,138.19z M109.16,85.52l-2.96,2.27c-0.17,0.13-0.35,0.26-0.55,0.4l0-1.27c0-1.68,0-3.26,0-4.84
		c-0.01-2.63-0.84-3.47-3.44-3.47c-0.32,0-0.64,0-0.96,0c-1.96,0-3.91,0-5.87,0.01c-5.62,0.01-11.43,0.02-17.14-0.05
		c-1.18-0.02-2.41-0.32-3.6-0.62c-0.47-0.12-0.95-0.24-1.42-0.34c-0.54-0.12-0.82-0.36-0.81-1.34c0.03-4.64,0.03-9.28,0.03-13.92
		c0-2.57,0-5.14,0-7.71c0.01-4.39-1.68-8.03-5-10.82c-0.3-0.25-0.56-0.76-0.56-1.09l-0.01-1.66c-0.04-7.18-0.08-14.6,0.02-21.89
		c0.07-5.03,3.79-9.34,8.85-10.26c0.81-0.15,1.7-0.22,2.8-0.22c5.54-0.01,17.11-0.01,27.51-0.01l15.06,0c0.53,0,1.07,0,1.6,0l0.68,0
		c0.99,0,1.98,0,2.97,0.02c5.79,0.15,10.52,4.85,10.54,10.47c0.08,15.5,0.08,31.5,0,48.92c-0.02,5.23-3.99,9.66-9.22,10.29
		c-1.54,0.19-3.13,0.19-4.68,0.19c-1.08,0-2.21,0-3.31,0.07c-0.96,0.05-1.95,0.4-2.65,0.92C114.37,81.52,111.73,83.55,109.16,85.52z
		"/>
	<path class="st0" d="M126.27,61.69c0.01-6.37,0.02-12.75,0.01-19.12c-0.01-3.95-2.39-6.31-6.38-6.32c-2.21,0-4.42,0-6.62,0l-2.33,0
		c0.08-0.23,0.16-0.46,0.24-0.68l0.16-0.47c1.67-4.8,1.26-9.48-1.19-13.9c-0.96-1.72-2.55-2.57-4.52-2.39
		c-1.96,0.18-3.4,1.29-4.06,3.11c-0.17,0.47-0.21,0.95-0.25,1.42c-0.03,0.38-0.06,0.73-0.15,1.05c-0.14,0.49-0.27,0.99-0.39,1.5
		c-0.33,1.34-0.67,2.73-1.39,3.78c-1.39,2.01-3.02,3.87-4.59,5.66c-0.57,0.65-1.13,1.28-1.66,1.91c-0.25-0.06-0.48-0.13-0.7-0.19
		c-0.63-0.18-1.18-0.34-1.76-0.35c-3.36-0.06-6.77-0.04-10.13-0.02c-2.18,0.01-3.07,0.91-3.08,3.09c-0.01,8.04-0.01,16.07,0,24.11
		c0,2.17,0.9,3.06,3.09,3.07l1.87,0.01c2.66,0.01,5.41,0.03,8.12-0.04c0.68-0.02,1.33-0.24,1.96-0.45c0.23-0.08,0.46-0.16,0.7-0.22
		c0.59,0.15,1.19,0.34,1.79,0.53c1.46,0.46,2.96,0.93,4.5,0.98c3.73,0.12,7.67,0.17,12.03,0.17c2.82,0,5.81-0.02,9.05-0.07
		C123.93,67.81,126.26,65.27,126.27,61.69z M106.55,33.11c-0.31,0.9-0.7,1.81-1.07,2.69c-0.24,0.55-0.47,1.1-0.69,1.65
		c-0.43,1.08-0.4,2.07,0.09,2.8c0.48,0.72,1.39,1.12,2.54,1.13c2.69,0.02,5.38,0.03,8.06,0.03l4.14,0c1.49,0,1.49,0,1.49,1.51
		c0,6.14,0,12.29,0,18.43c0,1.3-0.1,1.41-1.33,1.41c-6.28,0.01-12.57,0.01-18.85,0c-2.56-0.01-4.77-0.79-6.57-2.34
		c-0.29-0.25-0.54-0.75-0.54-1.1c-0.05-4.85-0.05-9.7,0-14.4c0-0.42,0.24-0.98,0.57-1.37c2.01-2.34,4.39-5.1,6.86-7.78
		c3.05-3.31,4.71-6.8,5.04-10.64C107.4,27.85,107.47,30.42,106.55,33.11z M88.52,41.93v19.81h-5.8V41.93H88.52z"/>
	<path class="st0" d="M39.84,63.49c0.19-1.13,0.38-2.3,0.51-3.46c0.16-1.44-0.6-2.46-2.03-2.75c-1.4-0.28-2.54,0.46-2.96,1.92
		c-0.09,0.31-0.15,0.64-0.2,0.96l-1.07,6.36l-2,0c-1.89,0-3.74-0.01-5.58,0.01c-0.92,0.01-1.68,0.3-2.2,0.83
		c-0.45,0.47-0.69,1.09-0.68,1.8c0.03,1.5,1.13,2.49,2.81,2.51c1.67,0.02,3.35,0.02,5.08,0.01l1.69,0
		c-0.04,0.22-0.08,0.43-0.12,0.64c-0.16,0.87-0.31,1.69-0.35,2.53c-0.04,0.84-0.26,1-1.24,0.96c-1.53-0.07-3.17-0.07-5.3,0.01
		c-1.51,0.05-2.51,1.01-2.57,2.44c-0.05,1.45,0.96,2.52,2.52,2.66c0.5,0.04,0.99,0.04,1.47,0.03l0.51,0l2.94,0l0.65,0l-0.95,5.66
		c-0.33,1.99,0.41,3.34,1.99,3.61c0.18,0.03,0.35,0.05,0.52,0.05c0.5,0,0.95-0.14,1.34-0.41c0.63-0.45,1.05-1.23,1.23-2.31l1.1-6.45
		h3.98l-0.96,5.83c-0.15,0.92,0,1.73,0.44,2.35c0.37,0.52,0.93,0.85,1.61,0.96c1.55,0.25,2.69-0.68,3.01-2.43l0.18-0.97
		c0.31-1.65,0.63-3.36,0.83-5.07c0.08-0.73,0.22-0.84,0.98-0.83c2.54,0.06,4.85,0.05,7.09-0.02c0.78-0.02,1.43-0.3,1.89-0.79
		c0.44-0.47,0.67-1.13,0.65-1.85c-0.05-1.42-1.02-2.36-2.55-2.45c-0.78-0.04-1.57-0.04-2.33-0.03l-0.88,0l-3.12,0l-0.73,0l0.7-4.1
		c0.5,0,1,0.01,1.49,0.01c1.66,0.02,3.24,0.04,4.84-0.07c0.86-0.06,1.94-0.77,2.31-1.53c0.37-0.75,0.07-2.01-0.44-2.64
		c-0.61-0.75-1.94-0.87-2.33-0.89c-1.31-0.07-2.6-0.05-3.97-0.04c-0.35,0-0.71,0.01-1.06,0.01l0.24-1.46
		c0.27-1.63,0.53-3.18,0.77-4.73c0.23-1.52-0.63-2.8-2.05-3.05c-1.47-0.26-2.64,0.56-3,2.07c-0.09,0.37-0.15,0.75-0.21,1.12
		l-1.01,5.99h-3.96l0.23-1.49C39.67,64.47,39.75,63.98,39.84,63.49z M37.83,75.69l0.66-3.96h3.97l-0.64,3.96H37.83z"/>
	<path class="st0" d="M85.44,106.91c-2.43-1.46-5.49-1.48-8.17-0.03c-0.15,0.08-0.59,0.07-0.81-0.06c-2.27-1.27-4.88-1.44-7.16-0.45
		c-2.25,0.98-3.89,2.96-4.5,5.44c-0.85,3.44-0.04,6.63,2.39,9.46c2.43,2.83,5.56,4.55,8.57,6.08c0.31,0.16,0.76,0.25,1.21,0.25
		c0.45,0,0.91-0.09,1.24-0.31l0.93-0.6c2.37-1.53,4.82-3.12,7.02-4.95c2.09-1.75,3.2-4.31,3.21-7.41
		C89.39,111.18,87.92,108.41,85.44,106.91z M84.21,114.35c-0.01,1.57-0.59,2.89-1.68,3.8c-1.37,1.15-2.89,2.19-4.36,3.19L77.21,122
		c-0.08,0.05-0.34,0.08-0.41,0.05c-0.46-0.32-0.92-0.65-1.39-0.97c-1.51-1.04-3.07-2.11-4.41-3.35c-1.32-1.22-1.72-2.95-1.13-4.87
		c0.34-1.11,1.04-1.75,2.13-1.94c0.18-0.03,0.35-0.05,0.52-0.05c0.83,0,1.47,0.39,2.05,1.23c0.67,0.97,1.51,1.51,2.38,1.53
		c0.79,0,1.55-0.41,2.14-1.2c1.24-1.65,2.03-1.75,3.14-1.35C83.52,111.55,84.22,112.71,84.21,114.35L84.21,114.35z"/>
</g>
</svg>
