<?xml version="1.0" encoding="utf-8"?>
<!-- Generator: Adobe Illustrator 26.2.1, SVG Export Plug-In . SVG Version: 6.00 Build 0)  -->
<svg version="1.1" id="Layer_1" xmlns="http://www.w3.org/2000/svg" xmlns:xlink="http://www.w3.org/1999/xlink" x="0px" y="0px"
	 viewBox="0 0 162.55 161.42" style="enable-background:new 0 0 162.55 161.42;" xml:space="preserve">
<style type="text/css">
	.st0{fill:#00D7FF;}
	.st1{fill:#001E6B;}
</style>
<g>
	<g>
		<g>
			<g>
				<g>
					<path class="st0" d="M4.99-1567.07c-2.07,0-3.74-1.68-3.74-3.74v-69.71c0-19.97,14.38-36.22,32.06-36.22h13.74
						c2.07,0,3.74,1.68,3.74,3.74s-1.68,3.74-3.74,3.74H33.3c-13.55,0-24.57,12.89-24.57,28.73v69.71
						C8.73-1568.75,7.06-1567.07,4.99-1567.07z"/>
				</g>
			</g>
			<path class="st0" d="M53.78-1535c-0.93,0-1.86-0.35-2.57-1.01l-16.82-15.58H20.6c-2.09,0-3.78-1.69-3.78-3.78
				c0-2.09,1.69-3.78,3.78-3.78h15.28c0.95,0,1.87,0.36,2.57,1.01L50-1547.43v-7.28c0-2.09,1.69-3.78,3.78-3.78h38.11
				c2.09,0,3.78,1.69,3.78,3.78c0,2.09-1.69,3.78-3.78,3.78H57.56v12.16c0,1.5-0.89,2.86-2.27,3.46
				C54.81-1535.11,54.29-1535,53.78-1535z"/>
			<path class="st0" d="M123.42-1640.63c-0.01,0-0.02,0-0.02,0c-2.09-0.01-3.77-1.71-3.75-3.8l0.15-24.78h-72.5
				c-2.09,0-3.78-1.69-3.78-3.78s1.69-3.78,3.78-3.78h76.31c1.01,0,1.97,0.4,2.68,1.11c0.71,0.71,1.1,1.68,1.1,2.69l-0.18,28.59
				C127.18-1642.31,125.5-1640.63,123.42-1640.63z"/>
		</g>
	</g>
	<g>
		<g>
			<path class="st0" d="M139.65-1594.5c-1.08,0-2.15-0.46-2.89-1.35l-48.78-57.98c-1.34-1.6-1.14-3.98,0.46-5.32
				c1.6-1.34,3.98-1.14,5.32,0.46l48.78,57.98c1.34,1.6,1.14,3.98-0.46,5.32C141.37-1594.79,140.51-1594.5,139.65-1594.5z"/>
			<path class="st0" d="M93.93-1583.4c-1.08,0-2.16-0.46-2.9-1.35l-20.9-25.02c-0.67-0.8-0.97-1.83-0.85-2.87
				c0.12-1.03,0.66-1.97,1.5-2.59c12.86-9.56,12.28-20.82,12.25-21.3c-0.17-2.08,1.38-3.89,3.46-4.06c2.08-0.17,3.9,1.39,4.07,3.47
				c0.05,0.6,0.95,13.79-12.18,25.43l16.2,19.4c6.52-4.36,22.82-13.72,41.39-12.73c2.08,0.11,3.68,1.89,3.57,3.97
				c-0.11,2.08-1.89,3.69-3.97,3.57c-20.71-1.1-39.13,13.12-39.31,13.26C95.57-1583.66,94.75-1583.4,93.93-1583.4z"/>
			<path class="st0" d="M70.24-1566.27c-3.03,0-6.1-1.2-8.43-3.55l-10.17-10.27c-2.32-2.35-3.64-5.57-3.61-8.84
				c0.03-3.14,1.25-6.03,3.44-8.15c0.01-0.01,0.02-0.02,0.02-0.02l6.23-5.93c1.51-1.44,3.9-1.38,5.34,0.13
				c1.44,1.51,1.38,3.9-0.13,5.34l-6.21,5.91c-0.72,0.7-1.12,1.69-1.13,2.79c-0.01,1.27,0.5,2.52,1.42,3.45l10.17,10.27
				c1.57,1.58,3.88,1.79,5.37,0.47l15.83-13.94c1.57-1.38,3.95-1.23,5.33,0.34c1.38,1.57,1.23,3.95-0.34,5.33l-15.82,13.94
				C75.47-1567.17,72.86-1566.27,70.24-1566.27z"/>
			<path class="st0" d="M129.07-1613.34c-1.3,0-2.56-0.67-3.26-1.87c-1.06-1.8-0.45-4.11,1.35-5.17c5.28-3.1,7.32-9.48,4.54-14.22
				c-2.78-4.74-9.34-6.07-14.63-2.97c-1.33,0.78-2.47,1.77-3.4,2.95c-1.29,1.64-3.67,1.92-5.31,0.63c-1.64-1.29-1.92-3.67-0.63-5.31
				c1.51-1.92,3.37-3.53,5.51-4.78c8.88-5.21,20.08-2.67,24.97,5.66c4.89,8.33,1.64,19.35-7.24,24.56
				C130.38-1613.51,129.72-1613.34,129.07-1613.34z"/>
		</g>
		<path class="st0" d="M95.04-1550.61c-0.88,0-1.77-0.31-2.48-0.93l-20-17.44c-1.57-1.37-1.74-3.76-0.36-5.33
			c1.37-1.57,3.76-1.74,5.33-0.36l17.35,15.13l2.95-2.94l-14.98-13.92c-1.53-1.42-1.62-3.81-0.19-5.34
			c1.42-1.53,3.81-1.62,5.34-0.19l17.85,16.6c0.75,0.7,1.19,1.68,1.21,2.7c0.02,1.03-0.38,2.02-1.11,2.74l-8.24,8.19
			C96.98-1550.98,96.01-1550.61,95.04-1550.61z"/>
	</g>
	<path class="st0" d="M145.78-1636.36c-1.02,0-2.03-0.41-2.77-1.21c-1.42-1.53-1.33-3.92,0.21-5.34l8.87-8.21
		c1.53-1.42,3.92-1.33,5.34,0.21c1.42,1.53,1.33,3.92-0.21,5.34l-8.87,8.21C147.62-1636.69,146.69-1636.36,145.78-1636.36z"/>
	<path class="st0" d="M157.53-1611.53c-0.3,0-0.61-0.04-0.92-0.11l-13.14-3.29c-2.02-0.51-3.26-2.56-2.75-4.58
		c0.51-2.02,2.56-3.26,4.58-2.75l13.14,3.29c2.02,0.51,3.26,2.56,2.75,4.58C160.76-1612.67,159.22-1611.53,157.53-1611.53z"/>
</g>
<g>
	<g>
		<g>
			<g>
				<path class="st1" d="M121.44,158.8c-0.02,0-0.05,0-0.07,0l-96.82-0.18c-2.3,0-4.17-1.88-4.16-4.18c0-2.3,1.87-4.16,4.17-4.16
					c0,0,0.01,0,0.01,0l96.82,0.18c0.02,0,0.04,0,0.06,0c7.88,0,15.3-3.06,20.88-8.63c5.6-5.58,8.69-13,8.71-20.91l0.17-83.94
					l-21.35-0.04c-2.3,0-4.17-1.87-4.16-4.18c0-2.3,1.87-4.16,4.17-4.16c0,0,0,0,0.01,0l25.53,0.04c1.11,0,2.17,0.44,2.95,1.23
					s1.22,1.85,1.22,2.95l-0.18,88.12c-0.02,10.13-3.98,19.65-11.16,26.8C141.05,154.88,131.55,158.8,121.44,158.8z"/>
				<path class="st1" d="M7.17,141.18C7.17,141.18,7.17,141.18,7.17,141.18C4.86,141.18,3,139.31,3,137l0.15-72.55
					c0.02-9.64,3.79-18.69,10.62-25.5c6.81-6.79,15.86-10.52,25.47-10.52c0.02,0,0.04,0,0.07,0l72.18,0.13
					c2.3,0,4.17,1.88,4.16,4.18c0,2.3-1.87,4.16-4.17,4.16c0,0-0.01,0-0.01,0l-72.18-0.13c-0.02,0-0.03,0-0.05,0
					c-7.39,0-14.34,2.87-19.58,8.09c-5.25,5.23-8.15,12.19-8.16,19.6l-0.15,72.55C11.34,139.32,9.47,141.18,7.17,141.18z"/>
			</g>
		</g>
	</g>
	<path class="st1" d="M50.54,156.92c-2.3,0-4.17-1.87-4.17-4.17V33.81c0-2.3,1.87-4.17,4.17-4.17s4.17,1.87,4.17,4.17v118.93
		C54.71,155.05,52.85,156.92,50.54,156.92z"/>
	<path class="st1" d="M32.82,58.77h-8.89c-2.3,0-4.17-1.87-4.17-4.17c0-2.3,1.87-4.17,4.17-4.17h8.89c2.3,0,4.17,1.87,4.17,4.17
		C36.99,56.9,35.12,58.77,32.82,58.77z"/>
	<path class="st1" d="M32.82,136.83h-8.89c-2.3,0-4.17-1.87-4.17-4.17s1.87-4.17,4.17-4.17h8.89c2.3,0,4.17,1.87,4.17,4.17
		S35.12,136.83,32.82,136.83z"/>
	<path class="st1" d="M32.82,124.27h-8.89c-2.3,0-4.17-1.87-4.17-4.17s1.87-4.17,4.17-4.17h8.89c2.3,0,4.17,1.87,4.17,4.17
		S35.12,124.27,32.82,124.27z"/>
	<path class="st1" d="M32.82,71.67h-8.89c-2.3,0-4.17-1.87-4.17-4.17c0-2.3,1.87-4.17,4.17-4.17h8.89c2.3,0,4.17,1.87,4.17,4.17
		C36.99,69.81,35.12,71.67,32.82,71.67z"/>
	<path class="st1" d="M29.01,102.87c-4.9,0-8.89-3.99-8.89-8.89s3.99-8.89,8.89-8.89s8.89,3.99,8.89,8.89S33.91,102.87,29.01,102.87
		z M29.01,91.62c-1.3,0-2.36,1.06-2.36,2.36s1.06,2.36,2.36,2.36c1.3,0,2.36-1.06,2.36-2.36S30.31,91.62,29.01,91.62z"/>
	<g>
		<g>
			<polyline class="st1" points="91.93,78.1 90.24,95.12 104.19,83.67 			"/>
			<path class="st1" d="M90.24,98.57c-0.56,0-1.11-0.13-1.62-0.41c-1.23-0.66-1.94-1.99-1.8-3.38l1.69-17.02
				c0.19-1.89,1.88-3.28,3.77-3.09c1.89,0.19,3.28,1.88,3.09,3.77l-0.87,8.73l7.51-6.17c1.47-1.21,3.64-0.99,4.85,0.48
				c1.21,1.47,0.99,3.64-0.48,4.85L92.43,97.79C91.8,98.31,91.02,98.57,90.24,98.57z"/>
		</g>
		<g>
			<path class="st1" d="M118.05,56.11c-0.55,0-1.1-0.12-1.62-0.38c-1.79-0.9-2.52-3.07-1.62-4.87l19.07-38.15
				c0.21-0.42,0.25-0.88,0.12-1.31c-0.08-0.26-0.27-0.62-0.68-0.82l-1.14-0.57c-0.72-0.36-1.63,0.02-2.04,0.83l-19.07,38.15
				c-0.9,1.79-3.07,2.52-4.87,1.62c-1.79-0.9-2.52-3.07-1.62-4.87l19.07-38.15c2.2-4.4,7.48-6.23,11.77-4.08l1.14,0.57
				c2.1,1.05,3.65,2.88,4.36,5.16c0.69,2.22,0.49,4.6-0.56,6.71L121.29,54.1C120.66,55.37,119.38,56.11,118.05,56.11z"/>
			<path class="st1" d="M105.91,87.48c-1.01,0-2-0.23-2.93-0.7L88.62,79.6c-3.28-1.64-4.59-5.7-2.92-9.05l11.36-22.72
				c0.8-1.6,2.16-2.81,3.83-3.4c1.72-0.61,3.55-0.5,5.17,0.3l12.7,6.35c0,0,0,0,0,0l1.67,0.83c1.61,0.81,2.8,2.21,3.34,3.95
				c0.53,1.69,0.38,3.5-0.42,5.1l-11.36,22.72c-0.8,1.6-2.16,2.81-3.83,3.4C107.42,87.35,106.66,87.48,105.91,87.48z M91.91,73.54
				l13.95,6.97l11.27-22.53L103.17,51L91.91,73.54z"/>
		</g>
		<g>
			<line class="st1" x1="107.47" y1="59.85" x2="101.9" y2="70.99"/>
			<path class="st1" d="M101.9,74.44c-0.52,0-1.04-0.12-1.54-0.36c-1.7-0.85-2.39-2.92-1.54-4.62l5.57-11.14
				c0.85-1.7,2.92-2.39,4.62-1.54c1.7,0.85,2.39,2.92,1.54,4.62l-5.57,11.14C104.38,73.74,103.16,74.44,101.9,74.44z"/>
		</g>
	</g>
</g>
</svg>
