<?xml version="1.0" encoding="utf-8"?>
<!-- Generator: Adobe Illustrator 26.2.1, SVG Export Plug-In . SVG Version: 6.00 Build 0)  -->
<svg version="1.1" id="Layer_1" xmlns="http://www.w3.org/2000/svg" xmlns:xlink="http://www.w3.org/1999/xlink" x="0px" y="0px"
	 viewBox="0 0 162.55 161.42" style="enable-background:new 0 0 162.55 161.42;" xml:space="preserve">
<style type="text/css">
	.st0{fill:#00D7FF;}
	.st1{fill:#001E6B;}
</style>
<g>
	<g>
		<g>
			<g>
				<g>
					<path class="st0" d="M4.99-1567.07c-2.07,0-3.74-1.68-3.74-3.74v-69.71c0-19.97,14.38-36.22,32.06-36.22h13.74
						c2.07,0,3.74,1.68,3.74,3.74s-1.68,3.74-3.74,3.74H33.3c-13.55,0-24.57,12.89-24.57,28.73v69.71
						C8.73-1568.75,7.06-1567.07,4.99-1567.07z"/>
				</g>
			</g>
			<path class="st0" d="M53.78-1535c-0.93,0-1.86-0.35-2.57-1.01l-16.82-15.58H20.6c-2.09,0-3.78-1.69-3.78-3.78
				c0-2.09,1.69-3.78,3.78-3.78h15.28c0.95,0,1.87,0.36,2.57,1.01L50-1547.43v-7.28c0-2.09,1.69-3.78,3.78-3.78h38.11
				c2.09,0,3.78,1.69,3.78,3.78c0,2.09-1.69,3.78-3.78,3.78H57.56v12.16c0,1.5-0.89,2.86-2.27,3.46
				C54.81-1535.11,54.29-1535,53.78-1535z"/>
			<path class="st0" d="M123.42-1640.63c-0.01,0-0.02,0-0.02,0c-2.09-0.01-3.77-1.71-3.75-3.8l0.15-24.78h-72.5
				c-2.09,0-3.78-1.69-3.78-3.78s1.69-3.78,3.78-3.78h76.31c1.01,0,1.97,0.4,2.68,1.11c0.71,0.71,1.1,1.68,1.1,2.69l-0.18,28.59
				C127.18-1642.31,125.5-1640.63,123.42-1640.63z"/>
		</g>
	</g>
	<g>
		<g>
			<path class="st0" d="M139.65-1594.5c-1.08,0-2.15-0.46-2.89-1.35l-48.78-57.98c-1.34-1.6-1.14-3.98,0.46-5.32
				c1.6-1.34,3.98-1.14,5.32,0.46l48.78,57.98c1.34,1.6,1.14,3.98-0.46,5.32C141.37-1594.79,140.51-1594.5,139.65-1594.5z"/>
			<path class="st0" d="M93.93-1583.4c-1.08,0-2.16-0.46-2.9-1.35l-20.9-25.02c-0.67-0.8-0.97-1.83-0.85-2.87
				c0.12-1.03,0.66-1.97,1.5-2.59c12.86-9.56,12.28-20.82,12.25-21.3c-0.17-2.08,1.38-3.89,3.46-4.06c2.08-0.17,3.9,1.39,4.07,3.47
				c0.05,0.6,0.95,13.79-12.18,25.43l16.2,19.4c6.52-4.36,22.82-13.72,41.39-12.73c2.08,0.11,3.68,1.89,3.57,3.97
				c-0.11,2.08-1.89,3.69-3.97,3.57c-20.71-1.1-39.13,13.12-39.31,13.26C95.57-1583.66,94.75-1583.4,93.93-1583.4z"/>
			<path class="st0" d="M70.24-1566.27c-3.03,0-6.1-1.2-8.43-3.55l-10.17-10.27c-2.32-2.35-3.64-5.57-3.61-8.84
				c0.03-3.14,1.25-6.03,3.44-8.15c0.01-0.01,0.02-0.02,0.02-0.02l6.23-5.93c1.51-1.44,3.9-1.38,5.34,0.13
				c1.44,1.51,1.38,3.9-0.13,5.34l-6.21,5.91c-0.72,0.7-1.12,1.69-1.13,2.79c-0.01,1.27,0.5,2.52,1.42,3.45l10.17,10.27
				c1.57,1.58,3.88,1.79,5.37,0.47l15.83-13.94c1.57-1.38,3.95-1.23,5.33,0.34c1.38,1.57,1.23,3.95-0.34,5.33l-15.82,13.94
				C75.47-1567.17,72.86-1566.27,70.24-1566.27z"/>
			<path class="st0" d="M129.07-1613.34c-1.3,0-2.56-0.67-3.26-1.87c-1.06-1.8-0.45-4.11,1.35-5.17c5.28-3.1,7.32-9.48,4.54-14.22
				c-2.78-4.74-9.34-6.07-14.63-2.97c-1.33,0.78-2.47,1.77-3.4,2.95c-1.29,1.64-3.67,1.92-5.31,0.63c-1.64-1.29-1.92-3.67-0.63-5.31
				c1.51-1.92,3.37-3.53,5.51-4.78c8.88-5.21,20.08-2.67,24.97,5.66c4.89,8.33,1.64,19.35-7.24,24.56
				C130.38-1613.51,129.72-1613.34,129.07-1613.34z"/>
		</g>
		<path class="st0" d="M95.04-1550.61c-0.88,0-1.77-0.31-2.48-0.93l-20-17.44c-1.57-1.37-1.74-3.76-0.36-5.33
			c1.37-1.57,3.76-1.74,5.33-0.36l17.35,15.13l2.95-2.94l-14.98-13.92c-1.53-1.42-1.62-3.81-0.19-5.34
			c1.42-1.53,3.81-1.62,5.34-0.19l17.85,16.6c0.75,0.7,1.19,1.68,1.21,2.7c0.02,1.03-0.38,2.02-1.11,2.74l-8.24,8.19
			C96.98-1550.98,96.01-1550.61,95.04-1550.61z"/>
	</g>
	<path class="st0" d="M145.78-1636.36c-1.02,0-2.03-0.41-2.77-1.21c-1.42-1.53-1.33-3.92,0.21-5.34l8.87-8.21
		c1.53-1.42,3.92-1.33,5.34,0.21c1.42,1.53,1.33,3.92-0.21,5.34l-8.87,8.21C147.62-1636.69,146.69-1636.36,145.78-1636.36z"/>
	<path class="st0" d="M157.53-1611.53c-0.3,0-0.61-0.04-0.92-0.11l-13.14-3.29c-2.02-0.51-3.26-2.56-2.75-4.58
		c0.51-2.02,2.56-3.26,4.58-2.75l13.14,3.29c2.02,0.51,3.26,2.56,2.75,4.58C160.76-1612.67,159.22-1611.53,157.53-1611.53z"/>
</g>
<g>
	<path class="st1" d="M158,59.8c0-10.67-8.86-19.34-19.76-19.34c-0.68,0-1.35,0.04-2.01,0.1c0-0.02,0-0.04,0-0.06
		c0-20.19-16.83-36.61-37.51-36.61c-14.09,0-26.96,7.8-33.33,19.82c-2.91-1.19-6.04-1.82-9.25-1.82c-12.12,0-22.17,8.84-23.78,20.27
		c-2.5-1.1-5.24-1.69-8.06-1.69c-10.9,0-19.76,8.68-19.76,19.34c0,0.04,0.01,0.09,0.01,0.13c0,0.08-0.01,0.15-0.01,0.22
		c0,10.82,8.8,19.63,19.63,19.63c1.52,0,3.04-0.18,4.51-0.52c2.21-0.52,3.57-2.73,3.06-4.93c-0.52-2.21-2.73-3.57-4.93-3.06
		c-0.85,0.2-1.74,0.3-2.63,0.3c-6.3,0-11.42-5.12-11.42-11.42c0-6.3,5.12-11.42,11.42-11.42c0.22,0,0.44-0.02,0.66-0.06
		c3.57,0.16,6.88,1.9,8.95,4.75c0.01,0.02,0.03,0.03,0.04,0.05c0.11,0.14,0.22,0.27,0.34,0.4c0.03,0.03,0.06,0.06,0.09,0.09
		c0.14,0.13,0.28,0.26,0.43,0.37c0.01,0.01,0.03,0.02,0.04,0.03c0.15,0.11,0.31,0.2,0.47,0.29c0.02,0.01,0.04,0.02,0.06,0.04
		c0.17,0.09,0.35,0.16,0.52,0.22c0.03,0.01,0.07,0.02,0.1,0.03c0.18,0.05,0.36,0.1,0.54,0.13c0.01,0,0.03,0,0.04,0.01
		c0.18,0.03,0.37,0.04,0.56,0.04c0.03,0,0.05,0.01,0.07,0.01c0.02,0,0.04,0,0.05,0c0.18,0,0.36-0.01,0.54-0.04
		c0.03,0,0.05-0.01,0.08-0.01c0.18-0.03,0.35-0.07,0.52-0.12c0.01,0,0.03-0.01,0.04-0.01c0.01,0,0.02-0.01,0.03-0.01
		c0.09-0.03,0.18-0.06,0.27-0.1c0.04-0.02,0.09-0.03,0.13-0.05c0.07-0.03,0.13-0.06,0.2-0.1c0.06-0.03,0.12-0.06,0.18-0.09
		c0.04-0.02,0.09-0.05,0.13-0.08c0.08-0.05,0.15-0.1,0.23-0.15c0.01-0.01,0.02-0.01,0.03-0.02c0.03-0.02,0.05-0.04,0.08-0.06
		c0.07-0.06,0.15-0.11,0.22-0.17c0.04-0.04,0.08-0.07,0.12-0.11c0.06-0.05,0.11-0.11,0.16-0.16c0.05-0.05,0.09-0.1,0.13-0.15
		c0.04-0.05,0.08-0.09,0.12-0.14c0.05-0.06,0.09-0.12,0.14-0.19c0.03-0.04,0.06-0.09,0.09-0.13c0.04-0.07,0.08-0.14,0.12-0.21
		c0.03-0.05,0.05-0.09,0.08-0.14c0.03-0.07,0.06-0.14,0.09-0.2c0.02-0.05,0.05-0.11,0.07-0.16c0.02-0.06,0.05-0.13,0.07-0.19
		c0.02-0.06,0.04-0.13,0.06-0.19c0.02-0.06,0.03-0.12,0.04-0.17c0.02-0.07,0.03-0.15,0.05-0.22c0.01-0.05,0.02-0.11,0.02-0.16
		c0.01-0.08,0.02-0.16,0.03-0.23c0-0.05,0.01-0.11,0.01-0.16c0-0.08,0-0.15,0-0.23c0-0.06-0.01-0.12-0.01-0.19
		c0-0.07-0.01-0.13-0.02-0.2c-0.01-0.08-0.02-0.15-0.04-0.23c-0.01-0.05-0.02-0.11-0.03-0.16c-0.02-0.09-0.04-0.18-0.07-0.27
		c-0.01-0.03-0.01-0.06-0.02-0.1c-0.45-1.44-0.68-2.93-0.68-4.44c0-8.42,7.09-15.27,15.8-15.27c3.21,0,6.29,0.92,8.92,2.67
		c0.01,0.01,0.02,0.01,0.03,0.02c0.07,0.04,0.14,0.08,0.21,0.13c0.05,0.03,0.1,0.06,0.16,0.09c0.05,0.03,0.11,0.05,0.17,0.08
		c0.07,0.03,0.15,0.07,0.22,0.1c0.01,0,0.02,0.01,0.03,0.01c0.04,0.01,0.07,0.02,0.11,0.03c0.08,0.03,0.17,0.06,0.25,0.08
		c0.05,0.01,0.1,0.03,0.16,0.04c0.08,0.02,0.15,0.04,0.23,0.05c0.06,0.01,0.13,0.02,0.19,0.03c0.07,0.01,0.13,0.02,0.2,0.02
		c0.07,0.01,0.15,0.01,0.22,0.01c0.06,0,0.12,0,0.17,0c0.08,0,0.15-0.01,0.23-0.01c0.05,0,0.11-0.01,0.16-0.01
		c0.08-0.01,0.15-0.02,0.23-0.03c0.06-0.01,0.11-0.02,0.17-0.03c0.07-0.02,0.14-0.03,0.21-0.05c0.06-0.02,0.12-0.03,0.18-0.05
		c0.06-0.02,0.12-0.04,0.19-0.07c0.06-0.02,0.13-0.05,0.19-0.08c0.05-0.02,0.11-0.05,0.16-0.08c0.07-0.03,0.13-0.06,0.19-0.1
		c0.05-0.03,0.1-0.06,0.15-0.09c0.06-0.04,0.13-0.08,0.19-0.12c0.05-0.03,0.1-0.07,0.14-0.11c0.06-0.04,0.11-0.09,0.17-0.13
		c0.05-0.04,0.1-0.09,0.15-0.14c0.05-0.04,0.09-0.08,0.13-0.13c0.06-0.06,0.11-0.12,0.16-0.18c0.03-0.04,0.07-0.08,0.1-0.12
		c0.06-0.07,0.11-0.14,0.16-0.21c0.02-0.03,0.05-0.06,0.07-0.09c0.01-0.01,0.01-0.02,0.02-0.03c0.04-0.07,0.08-0.14,0.12-0.21
		c0.03-0.05,0.06-0.11,0.09-0.17c0.03-0.05,0.05-0.11,0.07-0.16c0.04-0.08,0.07-0.15,0.1-0.23c0-0.01,0.01-0.02,0.01-0.03
		c4.2-11.18,15.27-18.69,27.54-18.69c16.16,0,29.3,12.74,29.3,28.41c0,1.59-0.14,3.2-0.41,4.77c0,0,0,0,0,0
		c-0.05,0.27-0.07,0.54-0.06,0.82c0,0.05,0.01,0.1,0.01,0.15c0.01,0.08,0.01,0.16,0.02,0.25c0.01,0.08,0.03,0.17,0.04,0.25
		c0.01,0.05,0.02,0.1,0.03,0.15c0.06,0.27,0.15,0.53,0.26,0.78c0,0,0,0,0,0c0.01,0.02,0.02,0.03,0.03,0.05
		c0.05,0.1,0.1,0.21,0.16,0.3c0.03,0.06,0.07,0.11,0.11,0.17c0.04,0.06,0.07,0.11,0.11,0.17c0.05,0.06,0.1,0.12,0.14,0.19
		c0.03,0.04,0.07,0.09,0.1,0.13c0.05,0.06,0.1,0.11,0.16,0.17c0.04,0.04,0.08,0.08,0.12,0.12c0.05,0.05,0.1,0.09,0.15,0.13
		c0.05,0.04,0.1,0.09,0.15,0.13c0.04,0.03,0.09,0.07,0.14,0.1c0.06,0.05,0.13,0.09,0.2,0.13c0.04,0.02,0.08,0.05,0.12,0.07
		c0.08,0.04,0.15,0.09,0.23,0.13c0.04,0.02,0.08,0.03,0.12,0.05c0.08,0.04,0.16,0.07,0.25,0.11c0.05,0.02,0.1,0.03,0.15,0.05
		c0.08,0.03,0.15,0.05,0.23,0.07c0.09,0.02,0.18,0.04,0.26,0.06c0.04,0.01,0.08,0.02,0.12,0.03c0,0,0,0,0.01,0
		c0.21,0.04,0.43,0.05,0.65,0.06c0.02,0,0.04,0,0.06,0c0.01,0,0.02,0,0.03,0c0.21,0,0.42-0.02,0.63-0.06
		c0.04-0.01,0.08-0.01,0.12-0.02c0.2-0.04,0.4-0.09,0.59-0.16c0.04-0.01,0.07-0.03,0.11-0.04c0.07-0.03,0.14-0.05,0.21-0.08
		c1.36-0.62,2.81-0.95,4.3-1.02c0.18,0.02,0.37,0.04,0.55,0.04c6.3,0,11.42,5.12,11.42,11.42c0,6.3-5.12,11.42-11.42,11.42
		c-0.89,0-1.77-0.1-2.63-0.3c-2.21-0.52-4.42,0.85-4.93,3.06c-0.52,2.21,0.85,4.42,3.06,4.93c1.47,0.35,2.99,0.52,4.51,0.52
		c10.52,0,19.13-8.32,19.6-18.72C157.93,60.66,158,60.24,158,59.8z"/>
	<path class="st1" d="M114.55,132.21H55.85c-5.07,0-9.19,4.12-9.19,9.19v6.96c0,5.07,4.12,9.19,9.19,9.19h58.71
		c5.07,0,9.19-4.12,9.19-9.19v-6.96C123.74,136.33,119.62,132.21,114.55,132.21z M117.32,149.78c0,0.76-0.47,1.38-1.04,1.38H54.12
		c-0.57,0-1.04-0.62-1.04-1.38v-9.81c0-0.76,0.47-1.38,1.04-1.38h62.17c0.57,0,1.04,0.62,1.04,1.38V149.78z"/>
	<path class="st1" d="M114.55,97.95H55.85c-5.07,0-9.19,4.12-9.19,9.19v6.96c0,5.07,4.12,9.19,9.19,9.19h58.71
		c5.07,0,9.19-4.12,9.19-9.19v-6.96C123.74,102.07,119.62,97.95,114.55,97.95z M117.32,114.99c0,0.68-0.47,1.23-1.04,1.23H54.12
		c-0.57,0-1.04-0.55-1.04-1.23v-8.76c0-0.68,0.47-1.23,1.04-1.23h62.17c0.57,0,1.04,0.55,1.04,1.23V114.99z"/>
	<path class="st1" d="M114.55,63.69H55.85c-5.07,0-9.19,4.12-9.19,9.19v6.96c0,5.07,4.12,9.19,9.19,9.19h58.71
		c5.07,0,9.19-4.12,9.19-9.19v-6.96C123.74,67.81,119.62,63.69,114.55,63.69z M117.32,81.1c0,0.74-0.47,1.34-1.04,1.34H54.12
		c-0.57,0-1.04-0.6-1.04-1.34v-9.49c0-0.74,0.47-1.34,1.04-1.34h62.17c0.57,0,1.04,0.6,1.04,1.34V81.1z"/>
	<path class="st1" d="M105.19,60.48c2.27,0,4.1-1.84,4.1-4.1v-6.64l4.53,4.72c0.81,0.84,1.88,1.26,2.96,1.26
		c1.02,0,2.04-0.38,2.84-1.14c1.64-1.57,1.69-4.17,0.12-5.8l-8.77-9.14c-1.62-1.69-3.82-2.62-6.19-2.59
		c-2.28,0.02-4.46,0.91-6.13,2.52l-9.33,8.94c-1.64,1.57-1.69,4.17-0.12,5.8c1.57,1.64,4.17,1.69,5.8,0.12l6.08-5.82v7.77
		C101.08,58.64,102.92,60.48,105.19,60.48z"/>
	<path class="st1" d="M67.36,37.75c-2.27,0-4.1,1.84-4.1,4.1v8.01l-6.08-5.82c-1.64-1.57-4.23-1.51-5.8,0.12
		c-1.57,1.64-1.51,4.23,0.12,5.8l9.33,8.94c1.67,1.6,3.85,2.5,6.13,2.52c0.03,0,0.05,0,0.08,0c2.34,0,4.51-0.92,6.11-2.59l8.77-9.14
		c1.57-1.64,1.51-4.23-0.12-5.8c-1.64-1.57-4.23-1.51-5.8,0.12l-4.53,4.72v-6.88C71.46,39.59,69.62,37.75,67.36,37.75z"/>
	<path class="st1" d="M86.63,73.68H61.65c-1.48,0-2.68,1.2-2.68,2.68c0,1.48,1.2,2.68,2.68,2.68h24.98c1.48,0,2.68-1.2,2.68-2.68
		C89.3,74.88,88.11,73.68,86.63,73.68z"/>
	<path class="st1" d="M108.4,73.68h-1.59c-1.48,0-2.68,1.2-2.68,2.68c0,1.48,1.2,2.68,2.68,2.68h1.59c1.48,0,2.68-1.2,2.68-2.68
		C111.07,74.88,109.87,73.68,108.4,73.68z"/>
	<path class="st1" d="M86.63,107.94H61.65c-1.48,0-2.68,1.2-2.68,2.68s1.2,2.68,2.68,2.68h24.98c1.48,0,2.68-1.2,2.68-2.68
		S88.11,107.94,86.63,107.94z"/>
	<path class="st1" d="M108.4,107.94h-1.59c-1.48,0-2.68,1.2-2.68,2.68s1.2,2.68,2.68,2.68h1.59c1.48,0,2.68-1.2,2.68-2.68
		S109.87,107.94,108.4,107.94z"/>
	<path class="st1" d="M86.63,142.2H61.65c-1.48,0-2.68,1.2-2.68,2.68c0,1.48,1.2,2.68,2.68,2.68h24.98c1.48,0,2.68-1.2,2.68-2.68
		C89.3,143.4,88.11,142.2,86.63,142.2z"/>
	<path class="st1" d="M108.4,142.2h-1.59c-1.48,0-2.68,1.2-2.68,2.68c0,1.48,1.2,2.68,2.68,2.68h1.59c1.48,0,2.68-1.2,2.68-2.68
		C111.07,143.4,109.87,142.2,108.4,142.2z"/>
</g>
</svg>
