<?xml version="1.0" encoding="utf-8"?>
<!-- Generator: Adobe Illustrator 26.2.1, SVG Export Plug-In . SVG Version: 6.00 Build 0)  -->
<svg version="1.1" id="Layer_1" xmlns="http://www.w3.org/2000/svg" xmlns:xlink="http://www.w3.org/1999/xlink" x="0px" y="0px"
	 viewBox="0 0 178.93 150" style="enable-background:new 0 0 178.93 150;" xml:space="preserve">
<style type="text/css">
	.st0{fill:#00D7FF;}
	.st1{fill:#001E6B;}
</style>
<g>
	<g>
		<g>
			<g>
				<g>
					<path class="st0" d="M13.18-1572.78c-2.07,0-3.74-1.68-3.74-3.74v-69.71c0-19.97,14.38-36.22,32.06-36.22h13.74
						c2.07,0,3.74,1.68,3.74,3.74s-1.68,3.74-3.74,3.74H41.49c-13.55,0-24.57,12.89-24.57,28.73v69.71
						C16.92-1574.46,15.25-1572.78,13.18-1572.78z"/>
				</g>
			</g>
			<path class="st0" d="M61.97-1540.71c-0.93,0-1.86-0.35-2.57-1.01l-16.82-15.58h-13.8c-2.09,0-3.78-1.69-3.78-3.78
				c0-2.09,1.69-3.78,3.78-3.78h15.28c0.95,0,1.87,0.36,2.57,1.01l11.56,10.71v-7.28c0-2.09,1.69-3.78,3.78-3.78h38.11
				c2.09,0,3.78,1.69,3.78,3.78c0,2.09-1.69,3.78-3.78,3.78H65.75v12.16c0,1.5-0.89,2.86-2.27,3.46
				C62.99-1540.82,62.48-1540.71,61.97-1540.71z"/>
			<path class="st0" d="M131.61-1646.34c-0.01,0-0.02,0-0.02,0c-2.09-0.01-3.77-1.71-3.75-3.8l0.15-24.78h-72.5
				c-2.09,0-3.78-1.69-3.78-3.78c0-2.09,1.69-3.78,3.78-3.78h76.31c1.01,0,1.97,0.4,2.68,1.11c0.71,0.71,1.1,1.68,1.1,2.69
				l-0.18,28.59C135.37-1648.02,133.68-1646.34,131.61-1646.34z"/>
		</g>
	</g>
	<g>
		<g>
			<path class="st0" d="M147.84-1600.21c-1.08,0-2.15-0.46-2.89-1.35l-48.78-57.98c-1.34-1.6-1.14-3.98,0.46-5.32
				c1.6-1.34,3.98-1.14,5.32,0.46l48.78,57.98c1.34,1.6,1.14,3.98-0.46,5.32C149.56-1600.5,148.7-1600.21,147.84-1600.21z"/>
			<path class="st0" d="M102.12-1589.11c-1.08,0-2.16-0.46-2.9-1.35l-20.9-25.02c-0.67-0.8-0.97-1.83-0.85-2.87
				c0.12-1.03,0.66-1.97,1.5-2.59c12.86-9.56,12.28-20.82,12.25-21.3c-0.17-2.08,1.38-3.89,3.46-4.06c2.08-0.17,3.9,1.39,4.07,3.47
				c0.05,0.6,0.95,13.79-12.18,25.43l16.2,19.4c6.52-4.36,22.82-13.72,41.39-12.73c2.08,0.11,3.68,1.89,3.57,3.97
				c-0.11,2.08-1.89,3.69-3.97,3.57c-20.71-1.1-39.13,13.12-39.31,13.26C103.76-1589.37,102.93-1589.11,102.12-1589.11z"/>
			<path class="st0" d="M78.43-1571.98c-3.03,0-6.1-1.2-8.43-3.55l-10.17-10.27c-2.32-2.35-3.64-5.57-3.61-8.84
				c0.03-3.14,1.25-6.03,3.44-8.15c0.01-0.01,0.02-0.02,0.02-0.02l6.23-5.93c1.51-1.44,3.9-1.38,5.34,0.13
				c1.44,1.51,1.38,3.9-0.13,5.34l-6.21,5.91c-0.72,0.7-1.12,1.69-1.13,2.79c-0.01,1.27,0.5,2.52,1.42,3.45l10.17,10.27
				c1.57,1.58,3.88,1.79,5.37,0.47l15.83-13.94c1.57-1.38,3.95-1.23,5.33,0.34c1.38,1.57,1.23,3.95-0.34,5.33l-15.82,13.94
				C83.65-1572.88,81.05-1571.98,78.43-1571.98z"/>
			<path class="st0" d="M137.26-1619.06c-1.3,0-2.56-0.67-3.26-1.87c-1.06-1.8-0.45-4.11,1.35-5.17c5.28-3.1,7.32-9.48,4.54-14.22
				c-2.78-4.74-9.34-6.07-14.63-2.97c-1.33,0.78-2.47,1.77-3.4,2.95c-1.29,1.64-3.67,1.92-5.31,0.63c-1.64-1.29-1.92-3.67-0.63-5.31
				c1.51-1.92,3.37-3.53,5.51-4.78c8.88-5.21,20.08-2.67,24.97,5.66c4.89,8.33,1.64,19.35-7.24,24.56
				C138.57-1619.22,137.91-1619.06,137.26-1619.06z"/>
		</g>
		<path class="st0" d="M103.23-1556.32c-0.88,0-1.77-0.31-2.48-0.93l-20-17.44c-1.57-1.37-1.74-3.76-0.36-5.33
			c1.37-1.57,3.76-1.74,5.33-0.36l17.35,15.13l2.95-2.94l-14.98-13.92c-1.53-1.42-1.62-3.81-0.19-5.34
			c1.42-1.53,3.81-1.62,5.34-0.19l17.85,16.6c0.75,0.7,1.19,1.68,1.21,2.7c0.02,1.03-0.38,2.02-1.11,2.74l-8.24,8.19
			C105.16-1556.69,104.2-1556.32,103.23-1556.32z"/>
	</g>
	<path class="st0" d="M153.96-1642.07c-1.02,0-2.03-0.41-2.77-1.21c-1.42-1.53-1.33-3.92,0.21-5.34l8.87-8.21
		c1.53-1.42,3.92-1.33,5.34,0.21c1.42,1.53,1.33,3.92-0.21,5.34l-8.87,8.21C155.8-1642.4,154.88-1642.07,153.96-1642.07z"/>
	<path class="st0" d="M165.71-1617.24c-0.3,0-0.61-0.04-0.92-0.11l-13.14-3.29c-2.02-0.51-3.26-2.56-2.75-4.58
		c0.51-2.02,2.56-3.26,4.58-2.75l13.14,3.29c2.02,0.51,3.26,2.56,2.75,4.58C168.95-1618.38,167.41-1617.24,165.71-1617.24z"/>
</g>
<g>
	<g id="_x34_LgIps_00000094588594567807765810000011129760774181859003_">
		<g>
			<path class="st1" d="M86.73,1.91c1.84,0.65,3.79,1,5.5,2.06c4.85,3,7.45,7.34,7.61,13.03c0.12,4.17,0.04,8.35,0.02,12.53
				c-0.02,3.04-2.2,5.24-5.11,5.23c-2.9-0.01-5.01-2.21-5.03-5.31c-0.02-3.88,0-7.76-0.01-11.63c-0.01-3.56-2.08-5.63-5.65-5.66
				c-3.03-0.02-6.07-0.03-9.1,0c-3.49,0.03-5.53,2.1-5.54,5.6c-0.01,3.78,0,7.56-0.01,11.34c-0.01,2.89-1.17,4.62-3.84,5.53
				c-2.4,0.81-4.71,1.81-6.98,2.93c-2.53,1.24-4.49,0.91-6.48-1.11c-2.59-2.62-5.14-5.27-7.71-7.9c-2.76-2.83-5.55-2.83-8.38-0.02
				c-2.08,2.07-4.15,4.14-6.22,6.22c-2.67,2.68-2.65,5.47,0.04,8.2c2.59,2.62,5.18,5.22,7.76,7.85c2.09,2.13,2.4,4.06,1.07,6.76
				c-1.05,2.14-1.97,4.32-2.73,6.58c-0.96,2.86-2.63,4.01-5.7,4.01c-3.78,0.01-7.56-0.01-11.34,0.01c-3.3,0.01-5.41,2.06-5.46,5.37
				c-0.05,3.13-0.05,6.26,0,9.4c0.06,3.23,2.15,5.27,5.38,5.29c3.83,0.02,7.66,0,11.48,0.01c3.19,0.01,4.75,1.1,5.8,4.08
				c0.79,2.25,1.71,4.43,2.78,6.56c1.29,2.56,0.95,4.56-1.1,6.63c-2.73,2.76-5.49,5.48-8.22,8.23c-2.49,2.51-2.5,5.35-0.05,7.86
				c2.19,2.24,4.38,4.48,6.6,6.69c2.29,2.28,5.01,2.37,7.44,0.28c2.44-2.09,5.48-2.01,7.44,0.21c1.93,2.19,1.65,5.27-0.69,7.42
				c-5.58,5.14-14.22,5.42-20.02,0.47c-3.28-2.81-6.35-5.89-9.17-9.16c-4.99-5.78-4.75-14.4,0.44-20c1.82-1.97,3.8-3.79,5.72-5.67
				c0.64-0.62,1.21-1.09,0.75-2.24c-0.48-1.2-1.29-0.95-2.13-0.98c-3.27-0.11-6.57,0.29-9.82-0.24c-6.56-1.08-11.34-5.8-12.61-12.4
				c-0.03-0.17-0.17-0.33-0.25-0.49c0-4.97,0-9.95,0-14.92c1-6,4.63-9.82,10.13-12.02c1.67-0.67,3.45-0.93,5.26-0.91
				c2.34,0.03,4.67,0.01,7.01,0.01c0.76,0,1.52-0.01,1.91-0.84c0.42-0.89-0.2-1.39-0.72-1.92c-1.64-1.66-3.31-3.3-4.95-4.96
				c-6.27-6.34-6.26-16.04,0.09-22.34c2.86-2.83,5.53-5.86,8.68-8.39c5.91-4.75,14.81-4.31,20.19,1c1.81,1.78,3.59,3.59,5.38,5.38
				c0.51,0.51,1.04,0.96,1.84,0.64c0.8-0.32,0.88-1,0.88-1.73c0.01-2.44,0-4.87,0.01-7.31c0.02-6.39,4.1-12.27,10.05-14.59
				c1.14-0.44,2.34-0.3,3.47-0.65C77.18,1.91,81.95,1.91,86.73,1.91z"/>
		</g>
	</g>
	<path class="st1" d="M55.55,110.83c-1.06,0-2.12-0.37-2.99-1.11c-5.86-5.05-10.08-11.66-12.19-19.13
		c-4.63-16.33,1.67-33.74,15.66-43.32c2.09-1.43,4.94-0.9,6.38,1.19c1.43,2.09,0.9,4.94-1.19,6.38
		C50.48,62.19,45.65,75.56,49.2,88.09c1.62,5.73,4.86,10.81,9.35,14.68c1.92,1.65,2.14,4.55,0.48,6.47
		C58.13,110.29,56.84,110.83,55.55,110.83z"/>
	<path class="st1" d="M145,148.09H78.84c-15,0-27.21-11.34-27.21-25.28V56.03c0-6.64,5.71-12.03,12.73-12.03h30.6
		c3.53,0,6.93,1.4,9.32,3.84l13.57,13.81c0.68,0.7,1.7,1.1,2.78,1.1h42.12c6.98,0,12.69,5.37,12.73,11.97l0.26,44.7
		c0.04,7.25-2.85,14.17-8.14,19.49C161.8,144.74,153.56,148.09,145,148.09z M64.36,53.16c-1.93,0-3.55,1.31-3.55,2.86v66.78
		c0,8.88,8.09,16.11,18.03,16.11H145c6.14,0,12.01-2.36,16.11-6.48c3.56-3.58,5.5-8.18,5.47-12.97l-0.26-44.7
		c-0.01-1.54-1.64-2.85-3.55-2.85h-42.12c-3.53,0-6.93-1.4-9.32-3.84L97.75,54.26c-0.68-0.7-1.7-1.1-2.78-1.1H64.36z"/>
	<g>
		<path class="st1" d="M95.89,113.47c-0.89,0-1.79-0.26-2.58-0.8l-16.35-11.17c-1.37-0.94-2.13-2.55-1.98-4.2
			c0.15-1.66,1.19-3.1,2.71-3.78l17.95-7.98c2.31-1.03,5.03,0.01,6.05,2.33c1.03,2.31-0.01,5.03-2.33,6.05l-10.43,4.64l9.56,6.53
			c2.09,1.43,2.63,4.28,1.2,6.37C98.79,112.77,97.35,113.47,95.89,113.47z"/>
		<path class="st1" d="M130.2,113.47c-1.46,0-2.9-0.7-3.79-2c-1.43-2.09-0.89-4.95,1.2-6.37l9.56-6.53l-10.43-4.64
			c-2.31-1.03-3.36-3.74-2.33-6.05c1.03-2.31,3.74-3.36,6.05-2.33l17.95,7.98c1.52,0.68,2.55,2.12,2.71,3.78
			c0.15,1.66-0.61,3.26-1.98,4.2l-16.35,11.17C131.99,113.21,131.09,113.47,130.2,113.47z"/>
		<path class="st1" d="M107.27,122.35c-0.47,0-0.94-0.07-1.41-0.22c-2.41-0.78-3.74-3.36-2.96-5.77l11.57-35.9
			c0.78-2.41,3.36-3.74,5.77-2.96c2.41,0.78,3.74,3.36,2.96,5.77l-11.57,35.9C111.01,121.11,109.2,122.35,107.27,122.35z"/>
	</g>
</g>
</svg>
