<?xml version="1.0" encoding="utf-8"?>
<!-- Generator: Adobe Illustrator 26.2.1, SVG Export Plug-In . SVG Version: 6.00 Build 0)  -->
<svg version="1.1" id="Layer_1" xmlns="http://www.w3.org/2000/svg" xmlns:xlink="http://www.w3.org/1999/xlink" x="0px" y="0px"
	 viewBox="0 0 150 150" style="enable-background:new 0 0 150 150;" xml:space="preserve">
<style type="text/css">
	.st0{fill:#00D7FF;}
	.st1{fill:#001E6B;}
</style>
<g>
	<g>
		<g>
			<g>
				<g>
					<path class="st0" d="M-1.28-1572.78c-2.07,0-3.74-1.68-3.74-3.74v-69.71c0-19.97,14.38-36.22,32.06-36.22h13.74
						c2.07,0,3.74,1.68,3.74,3.74s-1.68,3.74-3.74,3.74H27.03c-13.55,0-24.57,12.89-24.57,28.73v69.71
						C2.46-1574.46,0.78-1572.78-1.28-1572.78z"/>
				</g>
			</g>
			<path class="st0" d="M47.51-1540.71c-0.93,0-1.86-0.35-2.57-1.01l-16.82-15.58h-13.8c-2.09,0-3.78-1.69-3.78-3.78
				c0-2.09,1.69-3.78,3.78-3.78H29.6c0.95,0,1.87,0.36,2.57,1.01l11.56,10.71v-7.28c0-2.09,1.69-3.78,3.78-3.78h38.11
				c2.09,0,3.78,1.69,3.78,3.78c0,2.09-1.69,3.78-3.78,3.78H51.28v12.16c0,1.5-0.89,2.86-2.27,3.46
				C48.53-1540.82,48.02-1540.71,47.51-1540.71z"/>
			<path class="st0" d="M117.14-1646.34c-0.01,0-0.02,0-0.02,0c-2.09-0.01-3.77-1.71-3.75-3.8l0.15-24.78h-72.5
				c-2.09,0-3.78-1.69-3.78-3.78c0-2.09,1.69-3.78,3.78-3.78h76.31c1.01,0,1.97,0.4,2.68,1.11c0.71,0.71,1.1,1.68,1.1,2.69
				l-0.18,28.59C120.91-1648.02,119.22-1646.34,117.14-1646.34z"/>
		</g>
	</g>
	<g>
		<g>
			<path class="st0" d="M133.38-1600.21c-1.08,0-2.15-0.46-2.89-1.35l-48.78-57.98c-1.34-1.6-1.14-3.98,0.46-5.32
				c1.6-1.34,3.98-1.14,5.32,0.46l48.78,57.98c1.34,1.6,1.14,3.98-0.46,5.32C135.1-1600.5,134.23-1600.21,133.38-1600.21z"/>
			<path class="st0" d="M87.65-1589.11c-1.08,0-2.16-0.46-2.9-1.35l-20.9-25.02c-0.67-0.8-0.97-1.83-0.85-2.87
				c0.12-1.03,0.66-1.97,1.5-2.59c12.86-9.56,12.28-20.82,12.25-21.3c-0.17-2.08,1.38-3.89,3.46-4.06c2.08-0.17,3.9,1.39,4.07,3.47
				c0.05,0.6,0.95,13.79-12.18,25.43l16.2,19.4c6.52-4.36,22.82-13.72,41.39-12.73c2.08,0.11,3.68,1.89,3.57,3.97
				c-0.11,2.08-1.89,3.69-3.97,3.57c-20.71-1.1-39.13,13.12-39.31,13.26C89.29-1589.37,88.47-1589.11,87.65-1589.11z"/>
			<path class="st0" d="M63.96-1571.98c-3.03,0-6.1-1.2-8.43-3.55l-10.17-10.27c-2.32-2.35-3.64-5.57-3.61-8.84
				c0.03-3.14,1.25-6.03,3.44-8.15c0.01-0.01,0.02-0.02,0.02-0.02l6.23-5.93c1.51-1.44,3.9-1.38,5.34,0.13
				c1.44,1.51,1.38,3.9-0.13,5.34l-6.21,5.91c-0.72,0.7-1.12,1.69-1.13,2.79c-0.01,1.27,0.5,2.52,1.42,3.45l10.17,10.27
				c1.57,1.58,3.88,1.79,5.37,0.47l15.83-13.94c1.57-1.38,3.95-1.23,5.33,0.34c1.38,1.57,1.23,3.95-0.34,5.33l-15.82,13.94
				C69.19-1572.88,66.59-1571.98,63.96-1571.98z"/>
			<path class="st0" d="M122.8-1619.06c-1.3,0-2.56-0.67-3.26-1.87c-1.06-1.8-0.45-4.11,1.35-5.17c5.28-3.1,7.32-9.48,4.54-14.22
				c-2.78-4.74-9.34-6.07-14.63-2.97c-1.33,0.78-2.47,1.77-3.4,2.95c-1.29,1.64-3.67,1.92-5.31,0.63c-1.64-1.29-1.92-3.67-0.63-5.31
				c1.51-1.92,3.37-3.53,5.51-4.78c8.88-5.21,20.08-2.67,24.97,5.66c4.89,8.33,1.64,19.35-7.24,24.56
				C124.11-1619.22,123.45-1619.06,122.8-1619.06z"/>
		</g>
		<path class="st0" d="M88.77-1556.32c-0.88,0-1.77-0.31-2.48-0.93l-20-17.44c-1.57-1.37-1.74-3.76-0.36-5.33
			c1.37-1.57,3.76-1.74,5.33-0.36l17.35,15.13l2.95-2.94l-14.98-13.92c-1.53-1.42-1.62-3.81-0.19-5.34
			c1.42-1.53,3.81-1.62,5.34-0.19l17.85,16.6c0.75,0.7,1.19,1.68,1.21,2.7c0.02,1.03-0.38,2.02-1.11,2.74l-8.24,8.19
			C90.7-1556.69,89.74-1556.32,88.77-1556.32z"/>
	</g>
	<path class="st0" d="M139.5-1642.07c-1.02,0-2.03-0.41-2.77-1.21c-1.42-1.53-1.33-3.92,0.21-5.34l8.87-8.21
		c1.53-1.42,3.92-1.33,5.34,0.21c1.42,1.53,1.33,3.92-0.21,5.34l-8.87,8.21C141.34-1642.4,140.42-1642.07,139.5-1642.07z"/>
	<path class="st0" d="M151.25-1617.24c-0.3,0-0.61-0.04-0.92-0.11l-13.14-3.29c-2.02-0.51-3.26-2.56-2.75-4.58
		c0.51-2.02,2.56-3.26,4.58-2.75l13.14,3.29c2.02,0.51,3.26,2.56,2.75,4.58C154.48-1618.38,152.94-1617.24,151.25-1617.24z"/>
</g>
<g>
	<g>
		<g>
			<path class="st1" d="M7.81,113.65c-2.07,0-3.74-1.68-3.74-3.74V40.2c0-19.97,14.38-36.22,32.06-36.22h13.74
				c2.07,0,3.74,1.68,3.74,3.74s-1.68,3.74-3.74,3.74H36.13c-13.55,0-24.57,12.89-24.57,28.73v69.71
				C11.56,111.98,9.88,113.65,7.81,113.65z"/>
		</g>
	</g>
	<path class="st1" d="M141.86,95.27c-0.01,0-0.01,0-0.01,0c-2.09-0.01-3.77-1.71-3.76-3.79l0.31-79.97H50.11
		c-2.09,0-3.78-1.69-3.78-3.78s1.69-3.78,3.78-3.78h92.08c1,0,1.97,0.4,2.68,1.11c0.71,0.71,1.11,1.68,1.1,2.68l-0.33,83.76
		C145.63,93.58,143.94,95.27,141.86,95.27z"/>
	<path class="st1" d="M129.94,75c-0.28,0.31-0.04,0.64,0.01,0.94c0.92,5.18-1.53,10.12-6.22,12.43c-2.84,1.4-5.7,2.75-8.57,4.1
		c-2.04,0.96-4.29,0.19-5.2-1.76c-0.9-1.91-0.1-4.1,1.88-5.07c2.71-1.32,5.44-2.6,8.16-3.92c2.26-1.09,3.03-3.11,2-5.38
		c-0.98-2.17-2.01-4.32-3.09-6.45c-1.08-2.12-3.11-2.78-5.27-1.76c-2.63,1.24-5.24,2.51-7.87,3.75c-2.07,0.98-3.55,0.74-5.15-0.89
		c-1.25-1.27-2.57-2.46-3.98-3.56c-1.69-1.32-2.1-2.79-1.39-4.84c0.94-2.71,1.91-5.41,2.86-8.12c0.89-2.55,0.02-4.47-2.48-5.47
		c-2.15-0.85-4.29-1.7-6.45-2.52c-2.37-0.9-4.42,0.03-5.28,2.4c-1,2.77-1.96,5.55-2.95,8.32c-0.76,2.12-1.93,2.94-4.2,2.91
		c-1.82-0.02-3.63,0.07-5.44,0.28c-2.08,0.24-3.38-0.5-4.3-2.41c-1.23-2.55-2.44-5.11-3.67-7.66c-1.2-2.49-3.22-3.21-5.71-2.04
		c-2.02,0.95-4.04,1.92-6.05,2.89c-2.46,1.2-3.15,3.16-1.99,5.61c1.18,2.49,2.38,4.97,3.57,7.46c1.05,2.21,0.8,3.62-0.91,5.33
		c-1.21,1.2-2.36,2.47-3.41,3.82c-1.52,1.94-2.82,2.31-5.18,1.47c-2.64-0.93-5.27-1.87-7.9-2.78c-2.5-0.87-4.43,0.03-5.35,2.49
		c-0.84,2.23-1.68,4.46-2.48,6.71c-0.8,2.21,0.01,4.09,2.13,5.06c2.28,1.04,3.2,3.09,2.33,5.16c-0.86,2.03-3.08,2.79-5.36,1.85
		c-5.39-2.24-8.28-8.22-6.53-13.78c0.91-2.87,1.93-5.72,3.09-8.5c2.24-5.38,8.14-8.13,13.72-6.42c2.03,0.62,4.01,1.41,5.98,2.17
		c0.58,0.22,0.94,0.17,1.33-0.32c0.36-0.46,0.63-0.78,0.3-1.45c-1.1-2.28-2.44-4.47-3.18-6.89c-1.46-4.81,0.1-9.43,4.04-12.53
		c0.14-0.11,0.35-0.15,0.3-0.4c3.43-1.64,6.85-3.28,10.28-4.92c3.39-1.07,6.54-0.38,9.49,1.42c1.83,1.11,3.15,2.72,4.11,4.61
		c0.86,1.69,1.64,3.42,2.47,5.13c0.23,0.47,0.43,0.99,1.08,0.97c0.66-0.02,0.81-0.57,0.99-1.06c0.71-1.88,1.37-3.77,2.11-5.64
		c2.13-5.4,8.41-8.71,14.56-6.74c2.83,0.9,5.69,1.78,8.38,3.07c5.45,2.6,8.24,9.35,5.95,14.92c-0.65,1.58-1.16,3.22-1.72,4.84
		c-0.15,0.43-0.3,0.86,0.1,1.24c0.42,0.4,0.88,0.32,1.35,0.1c1.72-0.81,3.43-1.64,5.14-2.45c4.46-2.13,9.57-1.32,13.16,2.05
		c0.67,0.62,0.96,1.49,1.56,2.14C126.73,68.28,128.33,71.64,129.94,75z"/>
	<path class="st1" d="M23.64,146.05H7.81c-2.09,0-3.78-1.69-3.78-3.78v-32.03c0-2.09,1.69-3.78,3.78-3.78h15.83
		c2.09,0,3.78,1.69,3.78,3.78v32.03C27.42,144.36,25.73,146.05,23.64,146.05z M11.59,138.49h8.27v-24.48h-8.27V138.49z"/>
	<path class="st1" d="M97.17,143.06H25.43c-2.09,0-3.78-1.69-3.78-3.78s1.69-3.78,3.78-3.78h70.76l28.54-15.88
		c0.68-0.66,2.82-2.96,1.99-4.63c-0.8-1.59-1.66-1.82-4.41-1.18l-0.07,0.02c-2.04,0.71-16.47,7.66-26.17,12.43
		c-0.52,0.26-1.1,0.38-1.68,0.39l-35.83-0.15c-2.09-0.01-3.77-1.71-3.76-3.79c0.01-2.08,1.7-3.76,3.78-3.76c0.01,0,0.01,0,0.02,0
		l34.95,0.15c11.4-5.59,24.98-12.15,26.89-12.59l0.16-0.04c1.16-0.27,3.33-0.78,5.69-0.38c3.16,0.53,5.64,2.45,7.19,5.54
		c2.94,5.88-1.19,11.56-4.09,13.99c-0.18,0.15-0.38,0.29-0.59,0.41l-29.79,16.57C98.45,142.9,97.81,143.06,97.17,143.06z
		 M122.17,113.84l-0.04,0.01C122.14,113.85,122.16,113.85,122.17,113.84z"/>
	<path class="st1" d="M73.58,126.57c-1.94,0-3.59-1.49-3.76-3.46c-0.18-2.08,1.36-3.91,3.44-4.09c0.05-0.01,6.77-0.78,7.09-4.13
		c0.18-1.93-0.55-2.7-1.3-3.19c-0.67-0.45-1.4-0.66-1.71-0.73H49.24l-8,8c-0.71,0.71-1.67,1.11-2.67,1.11H25.13
		c-2.09,0-3.78-1.69-3.78-3.78s1.69-3.78,3.78-3.78H37l8-8c0.71-0.71,1.67-1.11,2.67-1.11h30.01c0.17,0,0.34,0.01,0.51,0.03
		c4.29,0.59,10.41,4.31,9.67,12.16c-0.39,4.16-3.17,7.51-7.83,9.42c-3,1.23-5.83,1.5-6.14,1.53
		C73.79,126.56,73.68,126.57,73.58,126.57z"/>
	<g>
		<path class="st1" d="M65.29,92.06c-1.72-0.25-3.02-0.82-3.9-1.72c-0.9-0.93-1.34-2.24-1.34-3.9c0-3.54,2.67-6.13,7.09-6.13
			c1.69,0,2.98,0.27,4.17,0.74c1.2,0.48,1.99,1.31,1.99,2.34c0,0.46-0.2,1.04-0.57,1.47c-0.31,0.38-0.79,0.65-1.39,0.65
			c-0.54,0-1.17-0.25-1.69-0.46c-0.83-0.35-1.77-0.54-2.64-0.54c-1.66,0-2.34,0.93-2.34,1.64c0,0.38,0.08,0.74,0.38,1.04
			c0.25,0.25,0.65,0.48,1.34,0.57l2.34,0.33c1.74,0.25,3,0.79,3.81,1.61c1.04,1.01,1.44,2.45,1.44,4.25c0,3.95-3.41,6.1-7.49,6.1
			c-1.65,0-3.13-0.14-4.44-0.65c-1.58-0.63-2.53-1.36-2.53-2.78c0-0.52,0.25-1.14,0.65-1.55c0.38-0.38,0.82-0.52,1.31-0.52
			c0.5,0,0.91,0.18,1.85,0.57c0.95,0.41,2,0.71,3.19,0.71c1.88,0,2.78-0.65,2.78-1.77c0-0.46-0.11-0.85-0.38-1.14
			c-0.25-0.25-0.65-0.44-1.28-0.52L65.29,92.06z"/>
		<path class="st1" d="M82.03,80.49c0.34-1.02,0.71-2.13,2.13-2.13c0.99,0,1.84,0.61,2.1,1.4c0.2,0.61-0.03,1.35-0.26,2.04
			l-6.04,18.1c-0.34,1.02-0.71,2.13-2.13,2.13c-0.99,0-1.84-0.61-2.1-1.4c-0.2-0.61,0.03-1.35,0.26-2.04L82.03,80.49z"/>
	</g>
	<path class="st1" d="M46.78,86.92c-0.84,0-1.69-0.28-2.39-0.85c-1.61-1.32-1.85-3.7-0.53-5.32C52.15,70.62,64.9,65.03,77.95,65.8
		c10.48,0.62,20.2,5.17,27.39,12.81c1.43,1.52,1.36,3.91-0.17,5.34c-1.52,1.43-3.91,1.36-5.34-0.17
		c-5.86-6.23-13.79-9.94-22.33-10.45c-10.64-0.63-21.03,3.93-27.79,12.19C48.96,86.44,47.88,86.92,46.78,86.92z"/>
</g>
</svg>
